<?xml version="1.0" standalone="no"?>
<!DOCTYPE svg PUBLIC "-//W3C//DTD SVG 20010904//EN"
 "http://www.w3.org/TR/2001/REC-SVG-20010904/DTD/svg10.dtd">
<svg version="1.0" xmlns="http://www.w3.org/2000/svg"
 width="2048.000000pt" height="548.000000pt" viewBox="0 0 2048.000000 548.000000"
 preserveAspectRatio="xMidYMid meet">

<g transform="translate(0.000000,548.000000) scale(0.100000,-0.100000)"
fill="#000000" stroke="none">
<path d="M10429 5476 c-3 -3 -24 -7 -47 -9 -23 -2 -53 -12 -67 -21 -22 -15
-26 -15 -31 -1 -7 18 -36 19 -67 3 -12 -6 -29 -14 -37 -18 -23 -11 -19 -46 5
-42 11 2 22 8 25 13 3 5 17 -2 31 -15 19 -17 30 -21 42 -15 9 6 90 5 199 -1
101 -6 480 -14 843 -19 363 -6 698 -12 745 -16 101 -7 233 -12 552 -21 185 -5
241 -4 253 6 12 10 18 10 30 0 13 -11 32 -11 102 0 71 11 113 11 257 0 94 -7
218 -15 276 -16 58 -2 162 -6 233 -10 112 -5 127 -4 127 10 0 9 6 16 13 17 6
1 -4 5 -23 9 -53 13 -201 13 -233 1 -39 -15 -52 -14 -38 3 7 8 8 17 4 19 -8 5
-197 21 -348 31 -33 2 -116 8 -185 14 -69 6 -257 13 -417 16 -161 4 -304 11
-318 16 -57 22 -1908 66 -1926 46z m-64 -76 c3 -5 -1 -10 -9 -10 -9 0 -16 5
-16 10 0 6 4 10 9 10 6 0 13 -4 16 -10z"/>
<path d="M9977 5429 c-10 -18 -20 -29 -24 -26 -3 4 -1 13 6 21 9 11 7 15 -11
20 -36 9 -76 7 -84 -5 -4 -7 -24 -9 -56 -6 -49 6 -50 6 -44 -17 3 -15 0 -28
-8 -35 -11 -10 -18 -7 -30 11 -14 19 -18 21 -26 8 -6 -9 -5 -17 2 -21 6 -4 7
-12 4 -18 -5 -7 8 -11 41 -11 56 0 120 30 115 54 -4 24 15 19 40 -9 19 -22 30
-25 85 -25 l63 0 -7 33 c-12 64 -38 74 -66 26z"/>
<path d="M10060 5440 c0 -5 7 -10 16 -10 8 0 12 5 9 10 -3 6 -10 10 -16 10 -5
0 -9 -4 -9 -10z"/>
<path d="M9674 5425 c-22 -17 -3 -21 26 -5 13 7 21 7 25 0 4 -6 11 -8 16 -4
15 9 0 24 -25 24 -12 0 -31 -7 -42 -15z"/>
<path d="M10115 5430 c3 -5 11 -10 16 -10 6 0 7 5 4 10 -3 6 -11 10 -16 10 -6
0 -7 -4 -4 -10z"/>
<path d="M9577 5384 c-11 -14 -17 -28 -14 -30 7 -8 37 26 37 42 0 19 -2 18
-23 -12z"/>
<path d="M9625 5390 c-3 -5 -1 -10 4 -10 6 0 11 5 11 10 0 6 -2 10 -4 10 -3 0
-8 -4 -11 -10z"/>
<path d="M8995 5384 c-27 -2 -183 -13 -345 -24 -415 -29 -971 -87 -987 -104
-4 -3 1 -6 10 -6 21 0 22 -19 2 -26 -9 -4 -23 3 -33 14 -17 21 -81 44 -69 25
4 -5 -6 -8 -24 -5 -16 2 -36 -1 -45 -8 -11 -10 -18 -10 -26 -2 -16 16 -38 15
-38 -2 0 -13 -33 -28 -115 -52 -20 -7 -31 -17 -33 -33 -2 -13 -12 -26 -23 -28
-10 -3 -19 -12 -19 -19 0 -20 56 -18 130 5 34 11 69 17 77 14 7 -3 20 3 28 13
13 18 14 18 33 1 18 -16 27 -17 88 -7 38 6 81 12 97 12 16 1 27 6 27 14 0 16
16 19 25 4 13 -22 112 -9 268 35 46 13 61 14 73 4 9 -7 18 -8 27 -2 6 5 65 10
131 11 65 2 127 7 139 13 26 15 214 14 312 -1 54 -8 94 -9 143 -1 46 7 126 8
246 1 173 -9 276 -5 276 10 0 11 -32 17 -122 25 -85 8 -97 25 -17 25 41 0 54
5 74 26 14 15 25 30 25 35 0 22 -205 42 -335 33z"/>
<path d="M13969 5311 l-23 -18 37 -12 c24 -8 60 -10 101 -6 42 5 71 3 85 -5
16 -8 31 -9 53 -1 23 8 36 7 60 -5 29 -15 75 -14 133 3 35 10 -42 31 -118 32
-38 1 -76 5 -86 10 -9 5 -23 6 -31 1 -8 -5 -22 -2 -37 7 -17 11 -27 13 -36 4
-8 -6 -17 -8 -20 -5 -3 4 -19 2 -36 -4 -23 -8 -31 -7 -35 4 -7 19 -19 18 -47
-5z"/>
<path d="M9547 5273 c-104 -3 -137 -7 -134 -16 3 -8 29 -12 85 -11 45 1 82 -2
82 -5 0 -11 124 -10 145 2 11 6 38 10 60 9 l40 -2 -50 15 c-27 8 -59 13 -70
12 -11 -1 -82 -3 -158 -4z"/>
<path d="M14488 5273 c-26 -6 -22 -23 5 -23 35 0 67 11 61 21 -5 9 -36 10 -66
2z"/>
<path d="M9865 5260 c3 -5 8 -10 11 -10 2 0 4 5 4 10 0 6 -5 10 -11 10 -5 0
-7 -4 -4 -10z"/>
<path d="M11014 5212 c9 -15 48 -23 43 -9 -2 7 -14 14 -26 15 -13 2 -21 -1
-17 -6z"/>
<path d="M6830 5128 c-36 -4 -193 -31 -350 -58 -157 -27 -371 -63 -476 -80
-105 -16 -231 -38 -280 -49 -49 -10 -111 -22 -139 -26 -27 -4 -207 -38 -400
-77 -303 -61 -366 -71 -470 -73 -123 -2 -306 -21 -545 -55 -232 -34 -622 -66
-676 -55 -19 3 -79 -1 -132 -10 -53 -8 -261 -31 -462 -50 -572 -56 -1117 -143
-1220 -195 -22 -11 -56 -24 -77 -28 -55 -12 -54 -32 2 -32 59 0 408 38 455 50
19 4 73 11 120 15 47 3 195 17 329 31 244 24 498 32 436 13 -16 -5 -119 -21
-227 -36 -132 -19 -198 -32 -198 -40 0 -6 -4 -15 -10 -18 -6 -3 -7 1 -4 9 6
16 -7 22 -19 9 -4 -3 -39 -5 -78 -4 -55 2 -75 -1 -90 -15 -16 -15 -25 -15 -58
-6 -44 14 -133 16 -113 3 10 -6 10 -10 -3 -21 -24 -20 -18 -25 27 -27 45 -1
64 13 46 34 -7 9 -7 13 0 13 5 0 13 -7 16 -16 6 -14 27 -16 194 -10 235 7 533
7 591 -1 43 -6 43 -6 20 -18 -13 -7 -50 -18 -82 -24 -96 -18 -133 -30 -152
-51 -10 -11 -26 -20 -37 -20 -28 0 -21 -21 12 -33 17 -6 30 -14 30 -18 0 -7
-108 -31 -150 -34 -14 0 -30 3 -37 8 -17 13 -78 4 -76 -10 2 -7 -3 -13 -10
-13 -19 0 -14 -57 7 -78 14 -14 44 -17 206 -19 203 -2 255 -12 177 -32 -25 -6
-68 -11 -94 -11 -37 0 -51 -5 -60 -19 -9 -14 -29 -21 -70 -26 -85 -11 -121
-49 -68 -73 26 -12 32 -26 15 -37 -5 -3 -10 -1 -10 5 0 7 -7 7 -22 -1 -16 -9
-23 -9 -26 0 -5 15 -22 14 -22 -2 0 -8 -19 -22 -42 -32 -71 -29 -93 -42 -102
-63 -9 -19 -24 -22 -123 -25 -18 0 -33 -5 -33 -10 0 -20 -24 1 -31 27 -6 22
-4 29 13 35 19 7 19 8 4 14 -22 9 -145 -32 -173 -58 -25 -22 -43 -85 -25 -85
6 0 28 -11 48 -25 37 -25 104 -35 104 -15 0 14 64 12 78 -2 10 -10 17 -10 32
0 15 9 26 10 41 2 16 -9 26 -8 44 4 37 24 164 56 225 56 30 0 136 10 235 21
126 15 271 22 485 26 339 6 383 -4 141 -32 -79 -9 -155 -22 -170 -28 -14 -6
-105 -14 -206 -17 l-180 -5 0 -65 c0 -36 -3 -70 -7 -76 -9 -13 -109 -30 -263
-44 -161 -15 -242 -13 -274 6 -25 15 -30 15 -59 0 -17 -9 -82 -23 -144 -31
-62 -9 -144 -25 -183 -37 l-70 -22 85 -9 c92 -9 110 -18 110 -51 0 -41 54 -51
264 -51 143 0 190 -3 193 -12 3 -8 -4 -13 -16 -13 -29 0 -38 -28 -15 -44 17
-13 17 -14 -2 -19 -10 -3 -89 -14 -174 -23 -85 -9 -166 -20 -180 -26 l-25 -9
33 -30 c41 -37 37 -44 -11 -24 -20 8 -53 15 -74 15 -21 0 -52 4 -68 9 -17 4
-39 5 -50 1 -11 -4 -31 -3 -44 2 -13 5 -44 6 -68 2 l-43 -6 36 -20 c23 -12 66
-22 110 -25 41 -3 71 -10 68 -14 -3 -5 -14 -9 -25 -9 -11 0 -52 -11 -91 -25
-39 -14 -126 -36 -192 -50 -67 -14 -143 -32 -169 -40 -27 -8 -114 -26 -195
-40 -159 -27 -192 -37 -192 -58 0 -31 -73 -81 -178 -122 -51 -20 -77 -36 -82
-50 -5 -13 -47 -43 -104 -75 -149 -83 -128 -113 64 -92 126 14 203 15 196 3
-9 -14 19 -21 82 -22 88 -1 101 -11 42 -32 -27 -10 -50 -24 -50 -31 0 -7 18
-21 40 -31 69 -31 69 -42 3 -61 -32 -9 -71 -24 -88 -34 -16 -10 -68 -28 -115
-40 -119 -29 -200 -60 -200 -76 0 -7 18 -19 40 -25 22 -7 40 -15 40 -19 0 -10
-209 -47 -460 -80 -317 -43 -351 -49 -390 -68 -19 -9 -35 -23 -35 -31 0 -25
50 -52 120 -63 39 -6 72 -13 74 -15 3 -2 -13 -22 -35 -44 l-39 -42 30 7 c54
10 185 19 185 12 0 -4 -20 -16 -45 -27 -47 -21 -78 -46 -71 -58 3 -4 76 4 163
16 152 23 182 23 338 7 118 -12 92 -23 -170 -73 -55 -11 -113 -25 -130 -32
-30 -14 -30 -14 24 -17 68 -4 250 24 311 48 25 10 75 21 110 25 62 6 66 5 75
-17 6 -13 20 -27 33 -33 26 -12 29 -25 5 -25 -26 -1 -105 -38 -130 -62 -31
-29 -29 -54 5 -66 15 -5 38 -19 52 -30 l25 -20 -25 -5 c-14 -3 -108 -10 -210
-16 -319 -19 -421 -54 -272 -92 48 -13 53 -24 17 -41 -36 -16 -31 -27 10 -23
39 4 42 -1 19 -33 l-15 -22 178 6 c123 5 205 3 266 -6 89 -12 108 -27 54 -41
-31 -8 -127 -69 -127 -80 0 -4 21 -11 46 -15 62 -9 45 -21 -56 -39 -325 -60
-417 -84 -450 -120 l-23 -25 95 0 c52 0 130 -3 173 -7 l78 -6 -37 -19 c-33
-17 -41 -31 -37 -65 1 -7 -3 -13 -9 -13 -5 0 -10 -4 -10 -10 0 -5 7 -10 15
-10 8 0 15 -6 15 -14 0 -23 -62 -38 -285 -71 -105 -16 -205 -53 -205 -77 0 -5
12 -13 28 -19 30 -12 122 -8 417 17 364 32 711 36 860 11 55 -9 143 -23 195
-31 52 -8 113 -22 135 -32 l40 -18 -89 -7 c-49 -4 -93 -12 -99 -18 -21 -21 2
-37 73 -48 40 -7 76 -15 79 -20 13 -19 450 -71 474 -56 4 2 27 -3 51 -12 31
-12 49 -14 62 -7 11 5 27 7 37 3 18 -7 187 3 235 14 15 3 33 14 40 25 11 19 9
20 -26 20 -21 0 -43 5 -48 10 -11 11 -99 -2 -166 -26 -46 -16 -102 -19 -93 -4
3 5 12 7 20 4 10 -4 13 2 12 22 -2 24 3 29 43 42 67 22 370 21 397 0 8 -7 29
-5 60 5 26 8 102 18 168 21 138 7 177 16 231 53 32 22 59 29 143 39 58 6 107
17 111 24 10 16 146 46 250 55 55 5 94 14 110 25 14 9 48 20 77 24 29 4 71 15
95 26 24 11 57 20 74 20 16 0 35 5 41 11 6 6 55 15 109 20 55 4 164 17 244 29
165 23 248 28 619 39 l264 9 81 -28 c78 -26 86 -26 216 -19 198 10 676 11 664
0 -15 -15 -234 -63 -302 -67 -118 -6 -172 -33 -142 -69 10 -12 9 -16 -6 -21
-11 -4 -46 -18 -79 -31 -109 -45 -168 -61 -314 -88 -149 -27 -165 -33 -243
-90 -25 -19 -61 -38 -80 -43 l-33 -9 28 -8 c15 -4 27 -14 27 -24 0 -12 5 -10
19 8 18 23 49 21 34 -2 -4 -7 -8 -25 -9 -41 -1 -16 -7 -32 -14 -36 -7 -4 -8
-10 -3 -13 6 -4 9 -23 8 -44 -1 -29 6 -48 29 -78 17 -22 34 -42 37 -45 4 -3 8
-14 11 -25 4 -23 3 -23 168 -2 180 24 304 36 480 48 141 9 158 12 191 35 78
54 201 75 629 109 173 14 322 28 330 31 8 3 193 14 410 25 217 10 420 24 450
30 64 13 77 14 109 4 19 -7 22 -5 19 11 -2 13 -13 20 -38 22 -34 4 -60 17 -60
32 0 14 82 22 360 35 233 11 277 10 286 -1 14 -18 33 -18 75 0 34 13 222 30
459 41 69 4 168 15 220 25 136 28 421 42 918 46 423 3 433 3 468 24 25 16 33
27 29 40 -14 45 50 58 360 70 309 12 1401 13 1580 1 80 -5 122 -4 127 2 4 7
11 7 20 0 7 -6 30 -14 51 -18 31 -6 37 -4 37 10 0 13 5 15 18 9 23 -10 150
-22 240 -23 40 -1 88 -7 106 -15 23 -9 54 -13 93 -9 39 3 91 -2 158 -17 155
-33 205 -40 232 -29 56 21 945 0 1543 -36 135 -8 326 -20 425 -25 99 -6 322
-26 495 -45 173 -20 400 -40 505 -45 220 -11 222 -12 504 -51 117 -17 248 -30
290 -30 469 5 715 11 747 20 22 6 59 11 84 11 64 0 82 15 36 30 -39 12 -51 36
-13 27 55 -14 123 -17 137 -7 8 7 11 13 5 16 -5 3 -28 13 -50 23 l-40 18 139
6 c77 4 142 10 145 13 10 9 -23 23 -69 29 -25 3 -79 14 -120 25 -41 10 -152
33 -247 49 -94 17 -183 35 -197 41 -28 10 -34 31 -13 48 16 14 150 -2 237 -28
87 -27 160 -36 160 -21 0 7 28 11 85 11 47 0 85 4 85 9 0 9 -69 34 -182 66
-65 18 -86 36 -64 54 19 16 162 0 281 -30 44 -11 119 -23 168 -26 l88 -6 -11
25 c-10 20 -9 31 4 56 21 41 22 40 -21 47 -209 36 -306 66 -296 91 3 8 -14 16
-54 24 -32 6 -78 18 -103 26 -42 13 -36 13 100 9 132 -4 148 -2 175 15 37 24
64 25 169 3 89 -18 98 -16 244 48 23 10 51 19 62 19 11 0 20 6 20 14 0 16 -21
26 -53 26 -18 0 -15 4 16 26 25 17 44 23 58 19 18 -6 20 -4 14 14 -3 11 -1 30
5 41 10 19 6 23 -42 44 -55 24 -96 60 -80 69 4 3 51 13 103 22 52 9 102 21
112 26 10 5 22 7 27 4 6 -3 20 5 32 18 49 53 68 75 68 81 0 13 -70 40 -189 70
-162 42 -221 78 -153 91 15 3 40 10 55 15 16 5 59 6 97 3 50 -4 82 -1 119 11
32 10 84 16 144 16 125 0 201 16 235 50 15 14 35 29 45 33 41 15 -4 67 -84 97
-70 27 -81 42 -48 69 l24 19 -30 11 c-16 6 -39 16 -50 21 -11 5 -45 12 -75 15
-77 9 -160 27 -166 37 -8 12 226 10 418 -4 172 -12 240 -6 309 28 84 42 42 77
-106 90 -60 5 -103 16 -172 45 -51 22 -99 39 -108 39 -24 0 -56 20 -50 31 4 5
22 9 41 9 22 0 42 8 56 22 24 24 77 37 155 38 58 0 69 13 42 49 -24 30 -24 51
-1 91 15 28 21 31 53 26 77 -12 239 -19 239 -10 0 17 -15 32 -35 35 -14 3 -20
13 -22 34 -1 17 -4 41 -8 55 -6 23 -1 27 47 49 58 26 82 46 74 60 -8 12 -47
18 -236 36 -190 18 -539 72 -557 87 -7 6 -13 19 -13 29 0 18 10 19 168 18 92
0 203 -4 247 -9 226 -26 275 -25 275 5 0 17 -59 35 -116 35 -99 0 -272 52
-320 97 -39 36 -21 43 131 43 98 1 135 4 149 15 15 12 22 12 27 3 6 -9 13 -7
28 6 38 35 27 44 -61 49 -72 4 -204 23 -301 43 -16 3 -25 10 -20 14 8 9 120
33 208 46 l49 7 -49 12 c-28 7 -113 20 -190 29 -163 19 -190 24 -180 34 3 4
48 10 98 14 217 16 267 21 267 28 0 8 -151 45 -222 55 -52 7 -60 21 -29 49 16
14 38 17 142 15 87 -1 139 4 174 14 28 9 71 19 98 22 26 3 47 9 47 13 0 7
-168 50 -283 72 -31 6 -55 15 -52 20 6 10 -23 18 -145 46 -41 9 -83 21 -94 26
-17 9 -17 11 -2 26 16 16 14 18 -21 34 l-38 17 35 1 c44 2 78 14 63 23 -6 4
-87 13 -179 21 -93 8 -187 21 -209 29 -22 8 -67 18 -100 22 -33 4 -74 13 -91
20 -17 7 -55 16 -85 20 -30 4 -69 14 -88 21 -19 8 -116 21 -215 29 -451 37
-648 59 -676 76 -10 5 11 9 55 9 74 0 179 22 204 43 23 19 -82 35 -354 52
-212 13 -243 17 -268 35 -25 19 -54 22 -310 35 -468 23 -487 26 -389 54 24 7
41 15 37 19 -3 4 -32 12 -63 18 -48 10 -29 11 128 8 874 -19 1236 -23 1335
-15 48 4 3 17 -85 25 -254 21 -618 46 -825 56 -132 6 -348 20 -480 31 -132 11
-404 31 -605 45 -201 14 -396 29 -435 34 -38 5 -101 9 -138 9 -38 1 -80 7 -96
15 -52 27 -207 55 -366 65 -88 6 -322 20 -520 31 -538 30 -1431 100 -1495 118
-38 10 50 20 186 21 80 1 115 5 130 16 28 21 141 19 549 -10 193 -14 488 -34
657 -45 168 -11 337 -24 375 -29 98 -14 465 -23 482 -12 7 5 11 14 7 20 -5 7
49 9 187 4 168 -5 198 -4 227 10 18 9 37 14 42 11 22 -14 230 -33 354 -34 71
0 134 -4 140 -9 5 -5 34 -5 71 1 52 9 68 8 97 -6 47 -22 226 -23 226 -1 0 8
-6 15 -12 15 -39 -1 -506 33 -698 50 -124 11 -298 24 -387 30 -162 10 -429 43
-440 54 -12 12 245 5 342 -9 66 -10 186 -15 353 -15 228 0 458 -16 525 -36 10
-3 27 2 37 11 10 9 27 14 37 11 94 -29 663 -53 663 -28 0 17 20 15 42 -5 20
-18 34 -12 25 11 -8 19 -67 32 -77 16 -6 -9 -10 -8 -18 6 -8 15 -30 19 -130
25 -67 4 -167 15 -224 23 -88 13 -329 36 -798 76 -58 5 -172 12 -255 15 -82 4
-249 18 -370 31 -145 16 -327 28 -535 34 -173 5 -409 14 -525 20 -354 17 -430
20 -715 30 -337 12 -519 23 -1040 60 -480 35 -911 60 -1027 60 -61 0 -82 -3
-80 -12 2 -13 -203 -16 -803 -10 -444 5 -1086 -8 -1185 -24 -49 -8 -187 -17
-306 -21 -193 -5 -220 -4 -262 12 -41 16 -67 17 -200 11 -83 -3 -251 -10 -372
-16 -121 -5 -251 -13 -290 -19 -38 -5 -162 -17 -275 -26 -361 -27 -449 -35
-755 -70 -402 -46 -398 -46 -414 -36 -19 12 -7 27 29 34 22 5 28 10 23 23 -5
13 -2 15 15 10 15 -5 24 -1 31 13 9 16 8 18 -8 14 -15 -4 -18 0 -14 21 5 23 2
26 -26 26 -21 0 -31 5 -31 15 0 16 -33 40 -65 48 -11 2 -49 0 -85 -5z m-4190
-758 c0 -5 -5 -10 -11 -10 -5 0 -7 5 -4 10 3 6 8 10 11 10 2 0 4 -4 4 -10z
m665 -50 c15 -7 16 -9 4 -9 -9 -1 -31 -4 -48 -7 -19 -4 -31 -2 -31 4 0 18 44
25 75 12z m13530 -10 c3 -5 -1 -10 -10 -10 -9 0 -13 5 -10 10 3 6 8 10 10 10
2 0 7 -4 10 -10z m90 -70 c3 -6 -5 -10 -19 -10 -14 0 -28 5 -31 10 -3 6 5 10
19 10 14 0 28 -4 31 -10z m-13476 -249 c7 -5 9 -11 5 -14 -19 -11 -131 -27
-195 -27 -70 0 -99 -6 -99 -21 0 -4 16 -11 35 -15 47 -8 44 -21 -10 -45 -88
-39 -471 -110 -510 -95 -20 7 -10 26 13 26 9 0 37 10 62 22 29 13 69 22 113
23 37 2 74 8 82 15 8 6 18 9 23 6 6 -3 15 1 22 8 6 8 26 18 43 21 18 4 50 11
72 17 39 10 39 11 15 20 -23 9 -16 13 65 38 92 29 234 40 264 21z m-1334 -301
c3 -5 2 -10 -4 -10 -5 0 -13 5 -16 10 -3 6 -2 10 4 10 5 0 13 -4 16 -10z m245
-34 c0 -3 -4 -8 -10 -11 -5 -3 -10 -1 -10 4 0 6 5 11 10 11 6 0 10 -2 10 -4z
m16924 -117 c94 -12 153 -27 108 -28 -41 -1 -213 20 -235 29 -20 8 -19 9 8 9
17 1 70 -4 119 -10z m-16294 -89 c-20 -13 -43 -13 -35 0 3 6 16 10 28 10 18 0
19 -2 7 -10z m16365 -75 c106 -20 128 -25 123 -30 -6 -6 -190 26 -208 36 -21
12 -6 11 85 -6z m740 -465 c3 -5 1 -10 -4 -10 -6 0 -11 5 -11 10 0 6 2 10 4
10 3 0 8 -4 11 -10z m-18977 -1332 c-5 -15 -88 -24 -88 -9 0 11 23 18 63 20
19 1 27 -3 25 -11z m117 2 c-28 -12 -45 -12 -45 0 0 6 15 10 33 9 27 0 29 -2
12 -9z m79 4 c23 -9 20 -24 -4 -24 -11 0 -20 7 -20 15 0 17 2 18 24 9z m17991
-494 c3 -5 2 -10 -4 -10 -5 0 -13 5 -16 10 -3 6 -2 10 4 10 5 0 13 -4 16 -10z
m-18355 -175 c0 -25 -32 -33 -70 -17 -31 13 -33 15 -15 23 35 14 85 11 85 -6z
m-167 -22 c-7 -2 -19 -2 -25 0 -7 3 -2 5 12 5 14 0 19 -2 13 -5z m17291 -183
c-6 -6 -21 -6 -39 -1 -30 9 -30 9 10 10 25 1 36 -2 29 -9z m-8859 -130 c4 -6
-11 -10 -37 -9 -33 0 -38 2 -23 9 28 12 53 12 60 0z m-7360 -10 c-3 -5 -20
-10 -36 -10 -18 0 -28 4 -24 10 3 6 20 10 36 10 18 0 28 -4 24 -10z m7175 -10
c-35 -11 -82 -11 -100 0 -10 7 6 9 55 9 50 -1 63 -3 45 -9z m-345 -9 l30 -7
-25 -8 c-14 -5 -140 -10 -280 -12 -293 -3 -287 10 10 24 230 11 229 11 265 3z
m-6410 -21 c-3 -5 -18 -10 -33 -10 -21 0 -24 2 -12 10 20 13 53 13 45 0z m521
-62 c-9 -5 -21 -6 -28 -2 -8 5 -5 10 8 14 25 10 41 0 20 -12z m4439 -169 c-37
-12 -323 -25 -313 -14 8 8 169 22 273 23 58 0 65 -1 40 -9z m-1895 -173 c0
-16 -18 -31 -27 -22 -8 8 5 36 17 36 5 0 10 -6 10 -14z"/>
<path d="M17643 4753 c-43 -17 38 -48 101 -39 34 5 51 2 79 -14 l36 -21 11 21
c6 12 9 28 6 36 -6 16 -58 19 -87 4 -14 -8 -31 -7 -64 5 -47 16 -61 17 -82 8z"/>
<path d="M17942 4701 c-11 -7 -11 -9 0 -13 17 -6 38 1 38 13 0 11 -21 11 -38
0z"/>
<path d="M18030 4676 c0 -2 7 -6 15 -10 8 -3 15 -1 15 4 0 6 -7 10 -15 10 -8
0 -15 -2 -15 -4z"/>
<path d="M17170 4642 l-35 -17 125 -6 c69 -4 141 -10 160 -13 19 -3 127 -11
240 -16 113 -6 226 -15 253 -20 46 -9 97 2 97 21 0 13 -131 26 -350 35 -85 3
-171 10 -190 16 -20 5 -68 8 -108 6 -42 -2 -74 1 -77 7 -3 6 -7 5 -11 -2 -7
-15 -61 -18 -66 -3 -2 5 -19 1 -38 -8z m275 -12 c4 -6 -6 -10 -22 -10 -22 0
-25 2 -13 10 19 12 27 12 35 0z"/>
<path d="M18210 4560 c0 -5 10 -10 23 -10 18 0 19 2 7 10 -19 13 -30 13 -30 0z"/>
<path d="M18290 4550 c-11 -7 -4 -10 27 -10 23 0 45 5 48 10 8 13 -55 13 -75
0z"/>
<path d="M2290 4359 c0 -5 5 -7 10 -4 6 3 10 8 10 11 0 2 -4 4 -10 4 -5 0 -10
-5 -10 -11z"/>
<path d="M2060 4310 c0 -5 7 -10 15 -10 8 0 15 5 15 10 0 6 -7 10 -15 10 -8 0
-15 -4 -15 -10z"/>
<path d="M2445 3851 c-3 -5 -1 -12 5 -16 12 -7 30 2 30 16 0 12 -27 12 -35 0z"/>
<path d="M2338 3823 c-32 -14 -58 -31 -58 -37 0 -6 9 -22 19 -36 19 -24 20
-24 40 -6 11 10 18 23 15 27 -3 5 18 9 45 9 28 0 51 5 51 10 0 6 -12 10 -27
10 -25 0 -25 1 -10 18 17 18 14 32 -7 32 -6 0 -37 -12 -68 -27z"/>
<path d="M2500 3533 c-19 -1 -68 -6 -108 -9 -75 -6 -81 -14 -32 -39 20 -10 35
-12 47 -6 17 8 111 27 197 38 27 4 34 8 25 14 -14 8 -57 9 -129 2z"/>
<path d="M1875 3330 c-3 -5 3 -10 15 -10 12 0 18 5 15 10 -3 6 -10 10 -15 10
-5 0 -12 -4 -15 -10z"/>
<path d="M556 721 c-3 -5 0 -11 8 -14 15 -6 26 1 26 15 0 11 -27 10 -34 -1z"/>
<path d="M5206 701 c-46 -10 -45 -31 1 -30 53 2 88 12 91 27 2 13 -40 15 -92
3z"/>
<path d="M5075 670 c-3 -5 1 -10 10 -10 9 0 13 5 10 10 -3 6 -8 10 -10 10 -2
0 -7 -4 -10 -10z"/>
<path d="M19092 608 c6 -18 28 -21 28 -4 0 9 -7 16 -16 16 -9 0 -14 -5 -12
-12z"/>
<path d="M13635 550 c3 -5 8 -10 11 -10 2 0 4 5 4 10 0 6 -5 10 -11 10 -5 0
-7 -4 -4 -10z"/>
<path d="M13670 551 c0 -11 31 -24 39 -16 3 3 -1 10 -9 15 -19 12 -30 12 -30
1z"/>
<path d="M13800 530 c0 -5 5 -10 11 -10 5 0 7 5 4 10 -3 6 -8 10 -11 10 -2 0
-4 -4 -4 -10z"/>
<path d="M4020 516 c0 -18 31 -29 55 -20 15 6 15 8 -6 20 -32 17 -49 17 -49 0z"/>
<path d="M15240 490 c0 -5 7 -10 16 -10 8 0 12 5 9 10 -3 6 -10 10 -16 10 -5
0 -9 -4 -9 -10z"/>
<path d="M15435 481 c-3 -5 2 -11 10 -15 8 -3 17 -1 20 3 3 5 -2 11 -10 15 -8
3 -17 1 -20 -3z"/>
<path d="M2673 385 c-8 -21 -2 -24 25 -14 13 5 20 13 17 19 -9 15 -35 12 -42
-5z"/>
<path d="M8605 340 c-3 -5 -1 -10 4 -10 6 0 11 5 11 10 0 6 -2 10 -4 10 -3 0
-8 -4 -11 -10z"/>
<path d="M1763 273 c-19 -4 -21 -8 -13 -24 13 -23 43 -25 64 -3 29 28 8 38
-51 27z"/>
<path d="M1506 181 c-3 -5 1 -14 8 -20 16 -13 32 2 21 19 -8 12 -22 13 -29 1z"/>
<path d="M1652 182 c-9 -7 -7 -15 12 -35 24 -26 30 -27 118 -27 51 0 100 4
108 10 9 5 19 5 27 -2 22 -18 16 16 -6 36 -12 11 -21 14 -26 7 -8 -14 -71 -14
-97 0 -17 9 -23 8 -30 -5 -5 -9 -21 -16 -35 -16 -25 0 -26 0 -8 20 18 20 17
20 -16 20 -19 0 -40 -4 -47 -8z"/>
</g>
</svg>
