<?xml version="1.0" standalone="no"?>
<!DOCTYPE svg PUBLIC "-//W3C//DTD SVG 20010904//EN"
 "http://www.w3.org/TR/2001/REC-SVG-20010904/DTD/svg10.dtd">
<svg version="1.0" xmlns="http://www.w3.org/2000/svg"
 width="4167.000000pt" height="1552.000000pt" viewBox="0 0 4167.000000 1552.000000"
 preserveAspectRatio="xMidYMid meet">

<g transform="translate(0.000000,1552.000000) scale(0.100000,-0.100000)"
fill="#000000" stroke="none">
<path d="M5065 15514 c-49 -12 -104 -36 -109 -49 -7 -20 18 -31 84 -40 83 -10
88 -12 124 -69 19 -30 55 -68 80 -86 70 -51 53 -72 -23 -28 l-38 21 -20 -20
c-14 -14 -39 -23 -75 -27 -86 -8 -644 -31 -758 -30 -97 0 -110 2 -170 32 -96
47 -151 38 -136 -23 4 -17 2 -27 -6 -30 -7 -2 -85 -9 -173 -15 -210 -14 -326
-29 -342 -42 -11 -8 -9 -17 7 -44 21 -32 21 -33 1 -43 -10 -6 -106 -18 -213
-26 -106 -8 -241 -20 -299 -27 -101 -11 -111 -10 -177 11 -40 13 -79 20 -91
16 -16 -5 -20 -3 -15 9 5 12 -1 16 -25 16 -19 0 -34 7 -40 19 -6 10 -24 24
-40 31 -34 14 -84 6 -79 -13 5 -17 120 -73 203 -98 100 -31 142 -49 161 -71
29 -31 110 -46 284 -52 272 -11 382 -28 364 -57 -3 -5 -28 -21 -55 -34 -27
-14 -49 -29 -49 -34 0 -12 73 -40 134 -52 28 -5 106 -36 174 -69 135 -66 142
-74 142 -160 l0 -48 -67 -9 c-124 -14 -350 -9 -456 12 -111 21 -129 16 -104
-31 23 -44 66 -80 130 -108 31 -14 57 -31 57 -39 0 -19 -82 -94 -122 -111 -48
-21 -231 -82 -331 -111 -44 -12 -60 -22 -67 -40 -11 -29 -102 -77 -175 -93
-27 -6 -88 -13 -135 -16 -148 -9 -330 -67 -330 -105 0 -39 -63 -72 -144 -76
-35 -2 -87 -14 -122 -29 -33 -14 -92 -30 -130 -36 -102 -17 -127 -27 -164 -65
l-34 -35 32 -33 c32 -32 33 -32 130 -31 77 0 128 8 246 38 133 33 154 36 198
27 61 -14 125 -14 133 -2 3 6 39 17 79 26 78 17 99 32 110 77 13 57 78 88 183
88 73 0 93 -13 100 -68 4 -26 13 -48 25 -57 19 -13 19 -17 7 -64 -16 -64 -10
-71 73 -80 63 -7 108 -24 108 -41 0 -10 -29 -16 -120 -24 -43 -4 -60 -11 -77
-31 -29 -33 -31 -69 -4 -60 31 10 182 25 251 25 84 1 137 13 161 39 10 11 38
23 64 26 43 7 164 3 194 -6 9 -2 21 8 29 26 19 37 28 44 56 37 23 -5 116 -72
116 -83 0 -3 -14 -9 -31 -13 -17 -3 -46 -19 -64 -35 -18 -16 -54 -36 -79 -46
-31 -12 -46 -24 -46 -36 0 -43 -108 -93 -270 -124 -104 -20 -180 -43 -200 -61
-26 -22 -72 -35 -152 -44 -90 -9 -108 -20 -108 -66 0 -36 -5 -39 -85 -49 -71
-10 -168 -35 -184 -48 -8 -7 -36 -12 -62 -13 -52 -1 -102 -30 -77 -45 17 -11
-31 -29 -112 -41 -91 -14 -110 -23 -110 -51 0 -49 105 -161 185 -198 22 -10
56 -19 76 -19 40 0 63 -19 54 -42 -9 -22 -39 -33 -146 -53 -95 -18 -97 -18
-130 1 -24 14 -38 33 -49 65 -8 24 -19 50 -23 57 -13 20 -67 14 -114 -14 -57
-33 -74 -28 -144 38 -71 68 -88 95 -103 160 -11 51 -13 53 -51 61 -22 5 -85
25 -140 44 -349 122 -445 149 -445 126 0 -14 70 -62 176 -122 149 -83 331
-228 522 -415 79 -78 102 -107 102 -127 0 -32 -12 -38 -94 -46 -72 -7 -96 -17
-96 -42 0 -24 34 -53 100 -86 99 -49 108 -70 66 -153 -56 -109 -121 -172 -178
-172 -34 0 -35 -10 -4 -58 50 -77 42 -133 -25 -167 -16 -9 -80 -23 -140 -31
-61 -8 -123 -21 -139 -29 -50 -26 -55 -46 -52 -207 4 -199 -10 -223 -83 -147
-50 51 -99 82 -131 82 -16 0 -39 -16 -67 -47 -37 -39 -49 -46 -81 -46 -23 0
-48 8 -63 20 -64 50 -81 15 -64 -131 17 -136 33 -184 86 -256 25 -34 44 -66
43 -71 -2 -5 11 -35 27 -66 29 -56 30 -57 11 -72 -11 -7 -36 -14 -55 -14 -51
0 -154 26 -202 50 -54 28 -116 85 -123 115 -4 14 -10 25 -15 25 -16 0 -41 -30
-41 -49 0 -9 -14 -30 -31 -47 -26 -25 -29 -34 -24 -63 6 -33 6 -33 -17 -17
-12 9 -40 16 -60 16 -31 0 -41 -5 -49 -24 -6 -13 -33 -36 -60 -51 -27 -14 -49
-29 -49 -31 0 -3 20 -31 44 -62 50 -64 71 -103 80 -148 11 -50 87 -113 138
-115 22 -1 22 -1 -4 -10 -15 -6 -30 -19 -33 -29 -10 -32 -58 -35 -107 -7 -49
28 -98 42 -98 28 0 -12 59 -61 98 -83 16 -9 51 -42 77 -75 68 -86 184 -260
191 -288 3 -13 12 -25 21 -27 8 -2 25 -32 37 -68 13 -36 42 -116 65 -179 47
-128 63 -193 55 -214 -6 -17 -42 -33 -98 -45 l-38 -7 90 -83 c50 -45 94 -92
97 -103 4 -11 1 -42 -5 -69 -9 -40 -9 -59 4 -110 9 -34 14 -65 11 -69 -2 -5
-36 -11 -74 -14 -39 -3 -79 -10 -89 -16 -28 -15 -36 -58 -17 -87 18 -28 48
-31 105 -8 51 21 64 15 148 -60 34 -31 68 -57 75 -58 7 0 40 -2 74 -2 53 -1
66 -5 100 -32 60 -48 83 -97 83 -176 0 -80 13 -76 -175 -53 -149 19 -216 19
-240 1 -28 -20 -7 -40 70 -66 35 -12 81 -34 103 -49 40 -30 99 -110 124 -171
18 -42 46 -68 102 -95 33 -16 42 -26 44 -51 2 -25 -3 -37 -24 -53 -15 -11 -37
-21 -50 -21 -24 0 -64 -31 -64 -49 0 -5 -18 -40 -40 -79 -49 -85 -50 -94 -8
-90 25 2 32 7 30 21 -4 25 21 21 51 -9 30 -30 27 -44 -7 -44 -15 0 -26 -7 -29
-20 -4 -18 -14 -20 -74 -20 -79 0 -115 -8 -110 -24 2 -6 15 -12 29 -14 22 -3
29 -12 43 -55 27 -85 85 -177 110 -177 7 0 42 20 78 45 37 25 77 45 90 45 13
0 50 -9 82 -20 76 -26 113 -25 185 5 47 20 77 25 140 25 45 0 90 -5 101 -10
46 -25 3 -81 -78 -102 -24 -6 -46 -14 -48 -18 -7 -11 85 -30 146 -30 91 0 145
-35 224 -145 38 -54 205 -322 205 -329 0 -2 -26 -6 -59 -9 -32 -2 -80 -15
-107 -27 -27 -11 -85 -26 -129 -31 -44 -5 -103 -14 -131 -20 -52 -10 -98 -41
-91 -62 2 -6 33 -18 70 -27 37 -9 70 -19 73 -22 13 -14 -42 -30 -87 -26 -38 4
-54 12 -78 37 -36 39 -54 33 -45 -14 11 -58 -13 -65 -205 -61 -151 4 -165 5
-194 27 -18 13 -50 24 -78 27 -39 4 -50 1 -70 -19 -21 -21 -32 -23 -121 -24
l-97 0 -55 -54 -55 -54 -80 2 -81 1 -17 -37 c-13 -27 -31 -44 -62 -59 -49 -24
-69 -49 -46 -58 17 -6 297 43 409 73 136 36 293 26 425 -27 l65 -26 -52 -23
c-38 -16 -52 -28 -52 -42 0 -44 15 -45 605 -46 l560 0 84 -37 c91 -41 151 -81
151 -103 0 -30 -76 -41 -450 -65 -91 -6 -192 -18 -225 -26 -134 -34 -135 -34
-135 -53 0 -10 10 -31 22 -46 20 -26 25 -27 77 -21 328 39 706 57 779 37 49
-14 109 -62 98 -79 -18 -30 -235 -62 -417 -62 -67 0 -101 5 -141 21 -45 19
-82 23 -248 29 -198 8 -216 10 -260 41 -15 10 -53 19 -95 22 -38 3 -150 22
-247 41 -237 48 -257 47 -277 -7 -22 -58 6 -78 185 -132 144 -43 219 -72 235
-91 16 -20 -36 -19 -129 3 -72 17 -72 17 -92 -5 -27 -29 -54 -28 -74 2 -9 14
-35 34 -58 44 -24 11 -60 36 -81 56 -42 42 -52 42 -153 5 -113 -42 -111 -67 9
-103 91 -28 137 -57 137 -86 0 -33 -31 -41 -117 -29 -111 15 -217 9 -221 -12
-4 -22 41 -32 263 -59 94 -12 201 -28 239 -36 38 -8 137 -19 220 -25 83 -5
167 -14 186 -19 19 -5 123 -21 230 -35 215 -29 291 -45 362 -77 80 -36 75 -61
-31 -171 l-66 -68 165 6 c91 3 187 8 214 11 46 5 48 4 35 -12 -8 -10 -77 -47
-154 -84 -127 -61 -195 -107 -195 -132 0 -23 23 -48 44 -48 13 0 41 14 62 31
74 60 182 96 378 125 128 20 579 31 619 15 34 -13 37 -46 5 -54 -28 -7 -239
-24 -418 -32 -190 -10 -294 -27 -376 -63 -43 -19 -101 -35 -153 -41 -46 -6
-89 -15 -95 -20 -13 -11 -102 -24 -344 -51 -281 -32 -508 -75 -549 -105 -17
-13 -17 -15 -1 -31 13 -13 46 -18 150 -25 149 -9 190 -15 231 -31 39 -15 33
-36 -18 -58 -25 -11 -45 -23 -45 -28 0 -16 41 -62 55 -62 8 0 17 9 20 20 8 26
13 25 74 -7 44 -22 74 -28 209 -40 192 -16 483 -14 489 4 3 7 -7 17 -21 23
-50 19 -213 42 -318 45 -86 2 -114 7 -140 23 -18 11 -71 32 -118 47 -139 44
-190 69 -190 95 0 20 48 32 237 60 251 38 385 65 472 95 56 20 104 27 258 36
199 12 357 9 388 -8 17 -10 16 -12 -13 -27 -36 -19 -47 -62 -13 -53 11 2 32
-4 48 -14 15 -10 40 -19 54 -19 14 0 36 -9 49 -20 32 -28 147 -30 354 -8 97
11 116 10 175 -6 37 -10 129 -21 212 -26 116 -6 156 -12 198 -30 l52 -23 -40
-24 c-23 -13 -66 -33 -97 -43 -31 -11 -70 -32 -88 -48 -24 -21 -78 -41 -231
-85 -446 -129 -447 -129 -465 -162 -24 -43 -144 -122 -221 -145 -36 -11 -74
-29 -84 -40 -33 -37 -96 -53 -182 -46 -43 4 -112 9 -153 12 -82 6 -167 -6
-227 -32 l-38 -17 47 -8 c26 -4 71 -21 100 -37 65 -37 177 -72 229 -72 33 0
43 6 71 41 55 68 102 82 333 99 207 14 231 19 260 46 29 27 64 38 195 58 134
22 789 92 1080 116 252 21 324 31 373 49 38 15 244 41 318 41 73 0 119 -21
119 -54 0 -13 -9 -30 -21 -37 -20 -14 -20 -15 15 -59 20 -25 36 -50 36 -56 0
-17 -97 -56 -128 -52 -23 3 -28 9 -32 43 -4 32 -9 41 -28 43 -12 2 -27 12 -32
23 -8 14 -21 19 -56 19 -26 0 -73 7 -107 16 -58 15 -61 15 -86 -5 -79 -64
-245 -116 -468 -147 -252 -35 -356 -55 -420 -80 -36 -14 -93 -33 -127 -41 -33
-7 -97 -35 -141 -60 -44 -25 -110 -63 -147 -84 -37 -22 -70 -48 -73 -59 -3
-11 -17 -22 -31 -25 -13 -3 -35 -7 -49 -10 -30 -6 -95 -62 -95 -81 0 -19 75
-37 124 -29 47 8 72 20 101 46 13 12 55 23 125 33 139 21 489 48 517 41 31 -7
29 -30 -4 -52 -47 -32 -81 -43 -207 -68 -207 -41 -386 -100 -386 -126 0 -8 16
-9 63 -4 129 17 128 18 153 -49 13 -32 26 -61 29 -64 3 -4 27 -9 53 -12 63 -7
61 -26 -8 -68 -73 -43 -138 -62 -237 -69 -80 -6 -81 -5 -85 18 -4 30 -48 38
-72 14 -15 -15 -13 -19 19 -49 19 -19 35 -40 35 -48 0 -33 43 -57 110 -60 84
-4 92 -24 25 -64 -58 -33 -465 -208 -522 -223 -42 -11 -64 -38 -39 -47 8 -3
38 2 67 10 58 16 200 36 261 36 26 0 38 -4 38 -14 0 -21 -79 -54 -198 -82 -59
-14 -160 -39 -225 -54 -65 -16 -138 -40 -162 -55 -47 -27 -90 -88 -101 -143
-8 -40 -10 -40 183 -5 200 36 401 38 516 5 42 -12 85 -22 94 -22 9 0 42 24 73
52 32 29 68 60 81 69 l23 16 -26 17 c-14 9 -55 19 -92 23 -70 6 -97 23 -77 47
6 7 43 28 82 46 53 24 87 33 130 34 75 1 87 -10 72 -66 -6 -23 -9 -47 -6 -52
16 -25 173 13 438 109 72 26 187 67 258 91 172 60 250 62 232 6 -8 -26 -65
-48 -262 -102 -80 -22 -173 -52 -207 -66 -33 -15 -88 -33 -121 -41 -108 -28
-121 -37 -176 -120 l-50 -78 28 -8 c72 -20 175 15 526 183 l259 123 99 5 c76
4 99 2 99 -8 0 -7 -8 -19 -17 -27 -32 -24 -127 -70 -163 -78 -53 -11 -277 -93
-343 -126 -32 -16 -90 -38 -130 -50 -40 -12 -126 -42 -192 -68 -146 -58 -309
-114 -645 -221 -140 -45 -304 -104 -365 -132 -246 -111 -457 -176 -702 -218
-67 -11 -129 -23 -138 -26 -45 -17 16 -59 102 -70 98 -13 106 -46 13 -57 -28
-3 -55 -9 -60 -12 -18 -11 -11 -53 9 -60 23 -7 204 22 249 41 31 12 33 17 27
44 -6 28 -4 32 37 50 49 22 111 37 182 46 36 4 55 13 73 32 13 15 44 50 68 78
52 59 83 74 225 109 58 15 213 57 345 95 132 37 296 84 365 103 69 19 323 110
565 202 242 92 469 178 505 191 95 35 155 30 98 -8 -28 -19 -18 -45 19 -54 49
-10 53 -13 53 -38 0 -46 -61 -80 -225 -125 -22 -5 -76 -33 -119 -60 -44 -28
-108 -60 -143 -72 -72 -23 -84 -36 -57 -56 30 -23 104 -9 203 37 48 22 92 40
97 40 5 0 74 31 154 69 224 108 402 159 684 196 162 21 196 20 196 -4 0 -24
-37 -50 -113 -81 -43 -17 -69 -36 -103 -76 -34 -39 -57 -57 -86 -65 -24 -6
-62 -31 -98 -64 -68 -62 -91 -69 -301 -85 -232 -18 -376 -68 -484 -169 -75
-69 -81 -72 -565 -225 -662 -208 -822 -241 -1081 -222 -105 8 -132 17 -111 38
17 17 15 45 -4 52 -48 18 -166 -6 -172 -35 -4 -20 79 -56 99 -44 7 5 10 4 5
-3 -3 -6 -42 -10 -94 -10 -112 0 -209 -29 -246 -73 -33 -39 -22 -68 27 -71
101 -5 455 15 692 38 107 11 203 28 290 50 72 19 310 79 530 134 425 105 427
106 690 222 94 42 254 107 356 146 202 76 259 102 301 137 15 12 47 26 73 29
77 12 146 40 388 160 128 62 280 132 339 155 107 41 251 81 298 81 52 1 128
38 210 101 185 144 413 254 646 314 89 23 176 54 252 90 168 78 460 149 570
137 23 -2 42 -2 42 1 0 3 -16 15 -35 27 -19 12 -35 25 -35 29 0 9 146 74 228
102 92 32 203 42 305 28 l90 -12 22 26 c19 25 26 27 99 27 69 0 78 2 83 20 7
28 35 26 178 -11 85 -21 149 -31 220 -33 114 -3 194 -28 250 -77 31 -27 38
-29 123 -29 149 0 341 -50 442 -115 30 -19 61 -36 70 -37 8 -1 125 -2 260 -2
270 -1 431 -21 561 -70 58 -21 152 -45 417 -106 85 -19 241 -69 318 -100 17
-8 39 -10 49 -7 15 6 16 14 9 55 -15 82 -11 148 10 171 25 28 95 28 156 0 36
-17 70 -21 170 -24 195 -5 365 -34 600 -103 130 -39 372 -87 505 -102 142 -15
232 -29 296 -47 51 -14 59 -13 88 2 45 23 133 8 298 -51 132 -47 209 -58 237
-34 25 20 20 28 -30 51 -25 12 -84 52 -131 89 -46 37 -101 72 -121 78 -20 7
-61 32 -91 56 -30 24 -72 49 -96 55 -22 6 -59 22 -81 37 -54 37 -102 56 -125
49 -21 -7 -22 -11 -19 -69 2 -43 -14 -60 -42 -45 -13 7 -18 22 -18 53 0 59
-19 73 -132 96 -113 23 -192 51 -223 80 -12 11 -58 35 -101 53 -85 35 -103 59
-61 78 41 19 272 -12 674 -91 200 -40 277 -48 287 -31 8 13 -25 38 -64 48 -20
5 -35 16 -35 24 0 24 270 17 425 -11 69 -12 150 -26 180 -32 41 -7 76 -5 140
6 47 9 108 17 135 19 46 2 50 4 53 29 2 14 10 29 18 32 8 3 99 12 202 21 235
19 322 33 322 50 0 7 -20 31 -45 52 l-45 38 63 0 c59 0 62 1 65 26 5 39 -39
54 -110 40 -80 -16 -422 -33 -513 -25 -44 3 -116 17 -160 31 -89 26 -217 48
-345 58 -112 9 -275 39 -380 70 -47 14 -112 25 -145 25 -33 0 -136 9 -230 19
-181 20 -262 43 -346 97 -37 24 -57 29 -124 32 -122 4 -121 4 -129 62 -6 42
-12 54 -47 82 -23 18 -55 45 -73 60 l-31 27 28 10 c37 14 32 42 -10 53 -30 8
-61 43 -49 55 3 3 41 6 84 7 50 1 86 7 96 15 12 10 86 15 313 18 l298 6 77
-27 c53 -19 88 -25 110 -21 18 3 80 -1 138 -9 58 -8 160 -18 225 -21 183 -9
286 -24 445 -61 299 -72 410 -94 521 -104 168 -15 258 -35 419 -90 80 -28 159
-50 176 -50 41 0 121 -24 229 -70 121 -51 211 -77 329 -94 70 -10 107 -21 125
-35 59 -48 74 -54 150 -61 78 -8 170 -40 191 -65 17 -21 -19 -35 -108 -43 -43
-4 -76 -11 -75 -17 3 -15 81 -23 228 -25 85 0 144 -6 170 -15 28 -10 63 -13
120 -9 73 5 90 2 185 -29 58 -19 130 -40 160 -46 121 -25 104 -50 -42 -63
-136 -11 -238 -25 -246 -32 -17 -18 29 -29 150 -36 82 -5 185 -20 268 -38 186
-41 186 -41 365 -51 118 -7 176 -15 220 -31 85 -30 342 -52 389 -34 9 3 16 14
16 24 0 10 7 26 16 35 20 20 44 3 44 -31 0 -13 2 -24 5 -24 2 0 85 -13 184
-30 99 -16 238 -34 308 -40 209 -17 365 -31 411 -37 26 -3 70 2 112 13 64 16
70 16 94 0 14 -9 57 -21 94 -25 37 -5 83 -16 104 -25 27 -12 69 -15 170 -15
109 1 146 -2 203 -20 85 -25 171 -27 321 -5 60 9 163 17 229 17 116 1 123 0
195 -32 70 -32 82 -34 190 -35 l115 -1 107 -54 c112 -56 150 -60 103 -11 -18
19 -25 35 -21 46 10 27 146 14 226 -22 127 -57 134 -134 12 -134 -52 0 -99
-15 -143 -45 -25 -18 -60 -30 -110 -36 -40 -6 -102 -22 -138 -37 -58 -23 -79
-26 -181 -25 -87 0 -135 6 -195 23 -123 34 -120 34 -144 9 l-21 -23 -26 25
c-25 23 -26 23 -39 5 -28 -38 15 -72 119 -96 132 -29 857 -73 877 -53 9 9 -7
17 -60 33 -108 33 -91 51 30 31 137 -23 170 -45 155 -104 -6 -25 -20 -33 -116
-62 -30 -9 -71 -29 -90 -44 -19 -16 -46 -31 -60 -35 -14 -4 -52 -20 -85 -37
-33 -16 -102 -37 -152 -46 -84 -16 -93 -20 -93 -40 0 -24 3 -23 -142 -43 -155
-22 -315 -75 -348 -115 -24 -28 -45 -34 -182 -50 -166 -19 -211 -31 -237 -61
-17 -19 -31 -24 -69 -24 -48 0 -97 23 -87 41 3 5 -15 29 -40 54 -41 40 -54 46
-103 51 -32 3 -69 15 -84 25 -35 25 -36 25 -40 -13 -2 -23 -11 -37 -30 -47
-25 -14 -29 -14 -51 7 -13 12 -28 22 -34 22 -15 0 -34 -50 -27 -72 5 -18 3
-19 -28 -13 -42 9 -56 21 -60 48 -2 18 -11 23 -53 28 -27 3 -57 9 -66 13 -27
12 -35 -15 -11 -35 l21 -17 -29 -12 c-31 -13 -48 -46 -33 -61 15 -15 119 -29
210 -29 74 0 84 2 114 27 39 33 85 34 174 2 82 -29 102 -44 85 -64 -17 -20
-248 -131 -325 -155 -33 -11 -107 -29 -165 -41 -58 -11 -152 -36 -210 -55 -57
-19 -157 -45 -220 -59 -136 -28 -171 -40 -270 -90 -77 -39 -112 -44 -191 -31
-38 7 -58 4 -110 -17 -35 -14 -115 -35 -178 -48 -100 -20 -119 -21 -163 -9
-52 13 -67 7 -68 -27 0 -22 -43 -41 -138 -62 -52 -11 -110 -30 -130 -43 -31
-19 -53 -22 -171 -26 l-136 -4 -54 37 c-41 28 -63 37 -94 37 -58 -1 -139 -22
-134 -36 2 -6 41 -16 88 -21 144 -17 106 -37 -160 -86 -91 -17 -191 -36 -221
-44 -83 -21 -228 -41 -576 -80 -174 -19 -346 -42 -383 -50 -74 -17 -121 -34
-121 -44 0 -13 66 -71 79 -71 8 0 19 7 25 14 10 13 18 13 66 0 30 -8 120 -17
200 -20 80 -2 193 -10 252 -16 94 -9 110 -9 140 7 23 11 74 19 168 25 103 6
144 12 172 27 20 11 67 23 105 27 47 5 79 14 103 31 19 13 85 37 145 54 61 16
184 50 275 75 177 48 268 64 565 96 474 51 563 66 654 107 60 27 326 117 376
127 17 3 104 17 196 30 192 29 299 60 314 93 18 41 206 112 404 153 52 10 98
17 103 14 4 -3 8 -22 8 -42 0 -20 5 -54 10 -74 10 -34 13 -37 40 -32 38 8 90
-22 90 -53 0 -13 6 -23 13 -23 21 0 37 22 37 52 0 40 34 57 136 69 104 11 121
16 152 40 37 29 115 47 323 74 216 28 280 40 324 64 34 18 242 22 395 8 66 -6
89 -5 104 6 27 20 24 66 -8 93 -14 13 -26 26 -26 30 0 12 152 -4 229 -25 50
-13 82 -28 98 -46 31 -33 49 -28 45 13 -2 21 1 32 10 33 7 1 60 4 118 8 84 5
105 9 105 21 0 44 201 60 777 60 332 0 496 -4 626 -16 201 -18 451 -15 494 5
14 8 28 22 31 32 12 44 186 58 737 59 437 0 520 4 520 26 0 30 -205 105 -353
128 -101 17 -159 35 -172 55 -20 33 74 80 160 81 49 0 68 6 102 29 53 36 129
46 202 27 52 -13 105 -9 164 13 73 28 300 61 697 101 332 34 471 53 540 75
112 35 442 65 785 71 219 4 307 9 405 26 69 11 131 24 137 27 9 5 -2 22 -35
53 -79 79 -104 82 -575 83 l-399 0 -22 -28 c-14 -17 -39 -32 -62 -37 -56 -13
-303 -12 -344 1 -19 7 -113 14 -208 18 l-173 6 25 34 c28 38 26 51 -9 51 -15
0 -31 10 -41 25 -30 46 -107 41 -101 -7 3 -30 -42 -40 -130 -28 -113 15 -213
60 -213 95 0 6 11 17 25 23 47 22 118 23 205 4 56 -12 96 -15 115 -10 17 4
136 12 265 17 263 11 343 25 415 73 36 24 79 37 206 64 206 44 254 44 339 2
59 -29 73 -32 155 -32 127 1 420 69 432 100 3 9 -7 29 -27 49 l-32 33 28 15
c46 23 143 54 211 67 73 15 138 7 173 -20 l25 -20 -51 0 c-51 0 -133 -34 -193
-79 -23 -18 -21 -18 84 0 149 25 298 63 435 111 138 48 238 73 345 87 90 11
181 39 270 82 75 36 102 41 357 74 114 14 231 33 260 41 58 16 114 26 286 49
139 20 358 72 520 126 67 22 148 47 179 55 32 8 71 26 88 39 39 29 113 50 225
64 190 24 437 101 543 169 34 22 111 59 170 82 59 23 136 60 170 83 34 22 92
52 128 67 77 31 167 82 399 223 178 109 197 122 338 239 52 42 115 86 140 98
26 12 75 42 108 66 34 24 73 45 88 48 15 3 54 33 94 73 41 43 106 93 167 130
55 34 133 91 173 127 40 36 82 66 93 66 11 0 152 67 312 149 161 82 308 154
328 160 19 6 45 24 57 40 20 27 149 101 177 101 14 0 290 180 407 265 43 31
81 54 86 51 5 -3 27 8 48 25 22 17 61 42 88 56 65 33 161 130 186 187 15 36
30 51 72 75 29 17 77 51 107 76 29 25 65 48 79 51 81 17 127 58 137 122 11 70
51 139 107 183 29 23 114 101 189 174 l136 133 -41 40 c-55 53 -83 67 -102 51
-8 -6 -14 -22 -14 -36 0 -18 -9 -28 -43 -42 -24 -10 -72 -44 -107 -75 -40 -35
-111 -80 -184 -118 -103 -52 -134 -74 -215 -153 -53 -50 -117 -104 -143 -118
-66 -38 -427 -310 -521 -393 -129 -114 -240 -196 -340 -253 -53 -29 -115 -71
-139 -93 -24 -21 -65 -51 -93 -64 -27 -14 -106 -65 -175 -113 -176 -124 -261
-179 -372 -244 -53 -31 -127 -81 -165 -112 -82 -66 -174 -116 -267 -144 -98
-30 -401 -196 -666 -364 -52 -34 -147 -85 -210 -114 -148 -69 -168 -80 -208
-115 -18 -15 -43 -28 -56 -28 -12 0 -43 -14 -68 -30 -27 -18 -71 -35 -105 -41
-125 -24 -240 -75 -322 -143 -86 -72 -476 -215 -726 -265 -175 -36 -257 -62
-340 -107 -142 -77 -534 -213 -705 -244 -129 -24 -390 -39 -390 -23 0 5 19 18
43 28 101 43 124 57 144 84 14 18 35 31 57 35 20 4 48 18 63 32 63 59 227 133
363 166 46 11 113 31 149 44 86 32 409 200 441 229 14 12 42 28 63 35 27 8 49
27 76 64 41 55 79 86 107 86 31 0 84 41 110 86 23 40 25 48 14 74 -7 17 -16
30 -20 30 -17 0 -40 32 -40 54 0 13 11 35 25 50 14 15 25 38 25 51 0 14 8 29
19 35 30 16 113 12 139 -6 42 -29 192 8 329 82 74 40 87 44 153 44 l72 0 59
51 c32 29 59 58 59 65 0 7 12 19 27 26 15 7 30 24 33 38 3 14 12 25 19 25 18
0 29 30 30 75 1 48 16 60 73 60 27 0 61 6 77 14 41 22 111 102 118 136 7 39
17 44 78 45 60 0 70 20 31 66 -30 36 -33 64 -8 74 9 4 61 9 114 10 141 4 177
25 205 120 5 18 23 40 46 54 25 16 46 43 63 79 18 38 30 52 40 48 22 -8 82 41
104 85 11 20 43 56 72 79 54 43 157 100 180 100 7 0 47 13 88 30 41 16 85 29
97 30 13 0 40 22 73 60 43 49 70 69 152 110 l100 50 -81 0 c-51 0 -82 4 -87
12 -19 31 164 147 346 218 198 79 300 148 300 204 0 35 47 56 127 56 115 1
193 16 222 44 15 14 50 33 78 41 28 8 98 38 155 65 56 27 148 63 203 81 202
63 282 92 363 129 145 68 174 103 112 135 -17 9 -36 31 -44 50 -8 19 -28 41
-46 50 -36 18 -32 28 18 54 46 24 83 28 146 18 41 -7 51 -6 70 11 11 11 35 22
51 24 22 2 30 8 30 22 0 27 49 54 121 67 115 21 395 137 519 214 47 30 184 75
225 75 20 0 33 7 41 21 6 11 34 32 63 45 51 23 201 52 213 41 11 -12 -76 -144
-114 -173 -21 -15 -44 -35 -51 -44 -24 -28 -71 -132 -77 -172 -6 -32 -13 -42
-36 -50 -18 -6 -29 -17 -29 -29 0 -20 -91 -79 -123 -79 -14 0 -16 -5 -11 -26
4 -14 1 -43 -6 -65 -7 -21 -10 -42 -6 -46 20 -20 125 72 230 201 21 26 62 63
91 81 42 27 54 41 59 68 8 41 68 115 99 119 33 5 90 121 83 168 -13 76 -15 72
62 114 41 22 103 66 138 97 105 93 223 136 285 105 41 -21 49 -20 49 3 0 11
20 37 46 58 107 89 124 107 152 156 16 29 39 61 51 71 11 11 21 25 21 33 0 24
41 95 128 222 47 68 109 172 138 230 28 58 75 135 103 171 142 181 131 161
135 233 3 76 18 101 54 92 19 -5 23 -3 19 9 -3 8 5 31 19 51 29 43 30 55 7 55
-38 -1 -143 -117 -143 -157 0 -13 -24 -49 -54 -83 -31 -34 -58 -75 -61 -93
-13 -60 -67 -156 -111 -196 -24 -22 -44 -49 -44 -60 0 -13 -14 -28 -40 -42
-26 -15 -43 -33 -50 -54 -11 -34 -44 -55 -85 -55 -22 0 -24 3 -18 30 4 25 2
30 -13 31 -71 4 -134 -22 -196 -82 -24 -24 -60 -55 -79 -68 -19 -13 -59 -59
-89 -102 -30 -43 -109 -138 -174 -212 l-119 -134 -64 45 c-35 25 -63 49 -63
53 0 12 146 212 214 294 37 44 76 97 87 118 11 20 37 48 60 62 22 14 45 36 51
50 15 33 2 88 -27 117 l-25 25 28 39 c45 63 48 68 28 61 -12 -5 -16 -3 -14 5
3 7 19 18 36 24 18 5 54 31 80 56 26 26 89 69 141 97 52 28 112 66 135 85 78
64 301 158 341 143 17 -7 61 26 68 52 10 39 -85 101 -155 101 -70 0 -75 35
-10 73 71 42 360 95 376 69 4 -7 -6 -42 -23 -79 -52 -119 -53 -165 -4 -184 65
-25 133 34 209 181 84 163 242 355 347 421 29 19 55 38 59 44 5 5 5 42 2 82
l-7 71 51 51 c44 44 54 62 77 138 51 167 118 274 210 336 70 46 155 126 155
144 0 7 -7 13 -15 13 -22 0 -19 51 9 146 33 111 59 159 109 195 23 17 140 80
259 140 168 85 224 119 247 147 17 20 41 49 53 64 21 25 24 31 20 58 -5 29
-129 -2 -236 -59 -56 -30 -116 -41 -116 -22 0 10 74 60 161 109 31 17 73 46
95 63 21 17 69 46 106 65 37 18 98 53 135 77 37 25 88 53 113 64 25 11 72 44
105 73 33 29 79 62 102 72 28 12 43 25 43 37 0 24 17 37 59 46 22 5 39 17 50
36 9 16 28 33 43 38 28 10 68 74 55 88 -10 10 -69 -20 -109 -56 -62 -54 -269
-171 -348 -195 -41 -13 -115 -29 -165 -36 -112 -16 -310 -19 -324 -5 -8 8 0
36 24 95 38 92 45 147 20 157 -27 10 -104 -27 -153 -73 -25 -24 -51 -44 -58
-44 -11 0 -64 -69 -64 -84 0 -18 -91 -134 -144 -184 -30 -29 -74 -61 -96 -71
-21 -9 -49 -29 -60 -44 -32 -41 -223 -92 -258 -69 -8 5 -16 36 -19 70 -6 59
-5 60 25 76 16 8 51 40 77 71 40 46 57 58 104 72 31 9 65 22 77 30 12 7 56 20
99 28 91 18 95 20 95 48 0 34 12 44 58 52 47 8 74 28 66 50 -9 23 -96 18 -199
-10 -103 -29 -216 -33 -270 -10 -21 8 -44 29 -57 51 l-21 36 -56 -5 c-75 -8
-152 -35 -174 -60 l-18 -20 -25 24 c-24 23 -33 24 -137 23 -137 -2 -224 -22
-292 -70 -65 -44 -130 -55 -264 -44 -56 5 -106 12 -111 15 -16 10 -11 65 14
160 35 131 37 151 21 165 -28 23 -95 -16 -95 -55 0 -29 -79 -118 -124 -139
-25 -12 -41 -14 -60 -6 -24 9 -25 12 -19 72 7 78 -13 133 -54 149 -22 9 -42 7
-91 -5 -35 -9 -67 -14 -72 -11 -32 19 18 114 99 192 57 54 65 66 65 99 0 28
-7 42 -28 61 -35 30 -69 25 -108 -18 -15 -16 -32 -29 -38 -29 -25 0 -19 34 19
118 23 49 41 98 41 109 0 12 11 41 25 64 13 24 27 63 31 87 4 24 19 58 35 78
34 43 38 74 9 74 -31 0 -146 -49 -165 -70 -12 -14 -18 -38 -19 -79 -1 -43 -7
-67 -22 -88 -55 -74 -128 -189 -188 -298 -37 -66 -84 -138 -105 -160 -21 -22
-63 -71 -93 -110 -64 -81 -75 -91 -106 -93 -13 0 -44 -18 -68 -39 -25 -21 -62
-51 -82 -66 -20 -15 -42 -42 -48 -60 -10 -28 -63 -77 -85 -77 -13 0 -39 99
-46 171 -7 80 9 115 71 158 52 36 56 45 56 120 0 31 6 64 13 73 6 8 63 45 124
82 62 37 148 93 190 125 88 66 194 171 173 171 -21 0 -329 -125 -448 -182 -65
-31 -136 -56 -184 -66 -78 -15 -79 -15 -99 7 -18 19 -28 22 -58 16 -61 -10
-131 -35 -274 -97 -76 -33 -145 -57 -153 -54 -18 7 -18 40 1 56 9 8 15 29 15
56 0 67 8 72 260 170 123 48 337 154 421 210 76 50 95 58 212 90 94 26 156 53
200 90 15 13 45 29 67 35 21 6 47 24 59 40 11 15 57 56 102 90 60 45 85 72 99
103 27 64 108 128 266 212 49 26 102 57 117 70 16 13 34 24 42 24 7 0 50 34
96 75 45 41 87 75 92 75 6 0 46 35 91 78 99 94 303 253 365 284 73 36 91 56
91 99 0 45 -23 72 -54 63 -11 -3 -68 -31 -126 -62 -210 -113 -242 -127 -252
-108 -5 9 -15 16 -22 16 -18 0 -69 -57 -106 -117 -46 -77 -95 -113 -224 -166
-64 -26 -120 -47 -125 -47 -4 0 -6 11 -3 25 9 51 -62 27 -148 -50 -32 -28 -60
-45 -76 -45 -14 0 -23 -4 -20 -9 17 -26 -100 -69 -136 -50 -14 8 -18 22 -18
70 0 91 -30 131 -52 69 -14 -41 -76 -73 -148 -75 -30 -1 -60 -3 -66 -4 -6 0
-40 -24 -75 -53 -67 -54 -130 -87 -164 -88 -11 0 -49 -14 -83 -31 -97 -47
-307 -83 -350 -60 -16 9 -30 8 -61 -5 -21 -8 -52 -14 -68 -12 -35 4 -40 29
-19 93 29 84 16 155 -27 155 -13 0 -47 -16 -77 -35 -61 -38 -75 -42 -83 -21
-15 38 82 239 154 320 22 26 29 44 29 75 0 69 -27 55 -142 -74 -165 -186 -239
-237 -310 -216 -46 14 -64 6 -128 -54 -71 -67 -139 -115 -165 -115 -13 0 -44
-18 -70 -40 -80 -69 -97 -75 -218 -75 l-108 0 -32 -37 c-42 -49 -86 -66 -104
-42 -7 10 -13 32 -13 49 0 52 -20 69 -79 68 -46 -1 -52 2 -57 24 -9 33 2 90
27 151 26 62 21 82 -21 82 -57 0 -95 -27 -199 -139 -108 -116 -206 -191 -248
-191 -30 0 -74 -22 -132 -67 -25 -18 -56 -36 -70 -40 -14 -3 -96 -34 -181 -68
-167 -68 -290 -109 -356 -119 -46 -7 -60 3 -66 44 -2 20 -8 25 -29 23 -14 -1
-131 -53 -260 -116 -245 -121 -358 -166 -747 -298 -284 -96 -442 -140 -627
-175 -277 -51 -616 -134 -920 -225 -637 -189 -677 -199 -1215 -294 -234 -41
-461 -86 -505 -99 -44 -14 -126 -30 -183 -36 -56 -6 -126 -20 -155 -30 -28
-10 -77 -28 -107 -39 -30 -11 -84 -22 -120 -26 -113 -10 -182 -26 -267 -61
-80 -33 -143 -46 -379 -79 -61 -8 -143 -26 -182 -40 -38 -13 -123 -32 -189
-40 -118 -16 -419 -30 -395 -19 6 3 12 13 12 21 0 24 -66 9 -97 -21 -63 -63
-293 -113 -398 -87 -41 10 -50 10 -65 -4 -10 -9 -49 -20 -87 -25 -37 -5 -82
-16 -100 -25 -41 -20 -174 -25 -196 -7 -8 7 -23 29 -32 49 -16 34 -16 36 4 56
18 18 38 22 155 28 83 5 146 13 163 22 35 18 93 31 253 57 69 12 181 34 250
50 69 16 169 34 222 39 61 7 127 22 180 42 46 17 112 37 148 45 158 36 171 45
98 65 -59 16 -254 5 -347 -20 -41 -11 -115 -25 -165 -31 -137 -18 -210 -37
-320 -85 -117 -50 -151 -57 -421 -84 -345 -35 -541 -89 -523 -143 3 -7 20 -13
39 -13 32 0 34 -2 34 -35 0 -31 -3 -35 -30 -40 -19 -3 -34 -14 -42 -31 -7 -15
-25 -31 -40 -38 -47 -18 -318 -59 -503 -76 -376 -34 -498 -47 -563 -61 -129
-27 -422 -57 -897 -94 -327 -24 -670 -70 -830 -110 -155 -39 -470 -66 -470
-40 0 11 22 16 105 25 33 4 125 22 205 41 205 49 264 61 360 73 57 7 90 17
104 30 16 14 44 20 111 25 90 7 131 18 104 28 -33 11 -333 -18 -588 -57 -224
-35 -706 -58 -938 -45 -84 5 -93 3 -115 -17 -13 -12 -35 -26 -50 -32 -35 -13
-200 -33 -538 -66 -318 -31 -464 -51 -507 -72 -40 -18 -43 -33 -7 -33 56 0 84
-38 44 -60 -33 -18 -97 5 -115 40 -26 50 -67 65 -180 64 -124 0 -150 -11 -141
-59 5 -27 3 -36 -13 -44 -19 -11 -127 -21 -416 -41 -88 -6 -179 -16 -203 -22
-36 -9 -54 -7 -103 7 -56 17 -69 17 -281 1 -123 -9 -398 -28 -613 -41 -638
-41 -772 -56 -930 -105 -54 -16 -115 -30 -136 -30 -58 0 -300 47 -424 81 -133
38 -159 36 -367 -21 -166 -45 -189 -48 -226 -21 -36 25 -96 41 -159 41 l-53 0
0 35 c0 24 -6 37 -19 45 -41 21 -199 23 -390 5 -146 -14 -196 -16 -227 -7 -21
6 -64 18 -94 27 -36 10 -97 15 -182 15 -104 0 -137 4 -178 20 -63 25 -114 25
-205 0 -183 -51 -202 -53 -245 -36 -22 9 -52 16 -66 16 -37 0 -68 38 -94 116
-12 38 -26 73 -31 78 -4 5 -20 -1 -35 -13 -32 -25 -90 -28 -122 -5 -31 21 -28
40 11 61 29 16 67 18 414 18 210 0 384 3 388 7 15 15 -41 29 -157 38 -703 59
-1091 97 -1121 111 -34 15 -35 43 -2 91 30 44 83 78 122 78 19 0 45 12 68 30
21 17 43 30 50 30 15 0 25 22 25 58 0 108 229 377 441 518 55 37 104 75 109
85 11 20 13 92 4 126 -12 43 -33 34 -124 -51 -50 -46 -159 -136 -244 -200
-114 -87 -173 -140 -230 -206 -42 -49 -87 -97 -100 -105 -40 -27 -205 -40
-308 -26 -75 11 -92 10 -115 -2 -157 -85 -199 -94 -269 -61 -48 23 -73 63 -88
142 -16 83 -18 88 -53 97 -35 8 -63 33 -63 55 0 22 -38 57 -72 65 -16 4 -28
12 -28 18 0 19 97 105 147 131 84 43 88 48 70 83 -31 59 -122 80 -183 42 l-33
-20 -20 20 c-12 12 -21 33 -21 47 0 41 -29 91 -85 147 -74 73 -112 131 -120
180 -4 23 -12 48 -17 55 -21 25 -86 8 -147 -39 -13 -11 -27 -19 -31 -19 -4 0
-26 25 -50 56 -23 30 -56 64 -73 75 -35 21 -92 25 -102 8 -4 -6 33 -52 82
-102 111 -113 130 -141 113 -162 -16 -19 -50 -19 -78 1 -35 25 -28 2 52 -150
95 -181 98 -193 83 -323 -10 -92 -9 -110 6 -153 36 -102 18 -131 -127 -202
-125 -60 -191 -50 -263 39 -16 21 -47 47 -67 58 -37 20 -37 20 -52 0 -8 -11
-12 -30 -9 -43 3 -12 8 -42 11 -66 6 -44 6 -45 -35 -66 -23 -11 -54 -39 -69
-61 -42 -63 -93 -119 -108 -119 -8 0 -14 10 -14 25 0 33 -25 32 -47 -2 -16
-24 -18 -53 -18 -233 0 -253 10 -282 77 -225 38 33 81 33 114 0 28 -28 54 -83
54 -115 l0 -21 -30 21 c-16 12 -34 19 -39 16 -4 -3 -11 -32 -13 -64 -7 -68
-40 -142 -66 -142 -14 0 -185 38 -325 72 -22 5 -44 19 -54 34 -15 24 -15 29 5
93 27 83 27 103 2 176 -22 65 -26 135 -9 168 7 12 27 36 46 54 37 34 36 53 -2
53 -73 0 -89 29 -100 179 -3 51 -13 112 -22 135 -55 146 -133 386 -133 410 0
17 18 59 40 97 23 37 44 83 47 104 6 36 4 40 -74 114 -97 92 -143 154 -143
193 0 22 -18 46 -82 111 -46 45 -100 97 -120 115 -25 22 -39 45 -44 70 -10 56
-30 89 -72 117 -20 14 -46 42 -58 62 -13 24 -41 49 -75 69 -30 18 -82 63 -116
101 -40 45 -82 80 -121 101 -36 19 -77 53 -102 82 -31 36 -49 50 -68 50 -41 0
-122 91 -150 167 -16 43 -33 70 -55 87 -42 32 -185 90 -267 110 -80 18 -287
104 -366 152 -33 20 -81 39 -108 44 -37 6 -56 16 -81 43 -18 20 -46 39 -62 43
-15 4 -37 15 -48 25 -27 24 -59 35 -125 43 -87 11 -88 13 -106 72 -9 33 -24
60 -37 68 -30 19 -286 96 -372 112 -38 7 -90 13 -115 14 -54 0 -194 24 -270
45 -30 9 -118 20 -195 24 -91 6 -154 15 -179 26 -27 11 -53 15 -80 11 -117
-17 -168 -18 -240 -2 -90 21 -122 43 -137 99 -22 86 -57 111 -212 152 -282 75
-651 92 -777 36 -51 -22 -300 -65 -465 -80 -60 -5 -220 -13 -355 -16 -258 -6
-706 -28 -925 -46 -210 -16 -296 -29 -312 -44 -8 -8 -20 -15 -27 -15 -38 0
-204 139 -256 216 -24 35 -38 44 -77 52 -62 14 -143 21 -168 16z m-1136 -889
c70 -33 178 -105 215 -144 l30 -31 -85 0 c-95 0 -117 10 -172 76 -49 58 -67
86 -67 106 0 24 15 23 79 -7z m3716 -7 c77 -21 100 -21 630 -24 622 -2 703 -8
994 -73 240 -54 484 -101 521 -101 17 0 44 7 61 15 27 14 31 14 57 -4 15 -11
87 -36 161 -56 73 -19 143 -41 155 -47 11 -6 41 -13 66 -14 25 -1 97 -23 162
-48 64 -25 145 -53 180 -62 76 -19 348 -156 461 -232 45 -30 105 -65 132 -77
28 -13 59 -33 70 -45 11 -12 47 -35 80 -51 112 -53 427 -343 549 -506 117
-156 236 -404 239 -500 2 -37 -2 -48 -25 -68 -15 -13 -52 -28 -85 -35 -161
-32 -173 -42 -133 -116 30 -54 23 -79 -44 -151 -68 -73 -74 -70 -140 59 -39
77 -50 111 -55 165 -8 80 -12 89 -50 98 -29 6 -55 29 -84 77 -10 15 -35 37
-57 48 -22 11 -44 29 -50 40 -6 10 -14 68 -19 127 -13 158 -22 169 -81 108
-19 -19 -42 -35 -53 -35 -11 0 -55 37 -100 83 -109 110 -458 419 -528 467 -31
21 -100 62 -155 91 -54 29 -131 74 -169 100 -102 67 -219 123 -488 233 -255
104 -318 121 -562 156 -82 11 -176 28 -207 37 -64 17 -91 39 -67 54 18 11 220
11 284 -2 98 -18 171 -22 194 -9 22 11 22 13 5 31 -45 50 -258 93 -644 130
-256 25 -513 29 -1235 19 -203 -3 -380 -1 -392 3 -27 10 -55 51 -47 72 8 21
51 42 121 60 79 20 243 12 348 -17z m29345 -441 c0 -33 -74 -145 -104 -159
-30 -13 -86 6 -86 29 0 25 61 94 109 125 56 35 81 36 81 5z m-27042 -878 c94
-37 277 -132 355 -184 67 -44 80 -73 50 -113 -39 -52 -73 -40 -83 30 -4 32
-10 42 -20 38 -61 -19 -159 20 -255 101 -32 28 -83 66 -112 85 -49 31 -63 51
-46 67 12 12 33 8 111 -24z m-815 -40 c26 -12 27 -14 10 -20 -24 -10 -197 -10
-253 0 -25 5 -35 9 -24 10 12 0 25 8 28 17 6 14 20 16 109 12 56 -3 115 -11
130 -19z m460 -100 c36 -16 67 -68 67 -111 0 -61 -11 -62 -177 -29 -239 49
-293 70 -263 105 11 14 78 40 130 50 45 8 214 -2 243 -15z m494 -140 c51 -29
100 -61 110 -73 10 -12 11 -15 3 -8 -19 17 -50 15 -50 -3 0 -8 16 -29 35 -48
37 -36 43 -55 23 -75 -23 -23 -87 -13 -189 32 -115 51 -149 71 -149 89 0 16
101 137 114 137 5 0 52 -23 103 -51z m373 -61 c0 -14 -30 -48 -42 -48 -12 0
-10 34 4 48 15 15 38 16 38 0z m26553 -57 c14 -14 0 -41 -22 -41 -10 0 -27
-12 -36 -27 -17 -25 -18 -26 -31 -8 -20 26 -18 82 3 93 17 10 69 0 86 -17z
m-33733 13 c0 -9 -68 -34 -95 -34 -31 0 -33 18 -2 24 12 3 31 7 42 9 31 7 55
8 55 1z m34040 -295 c0 -7 -15 -30 -33 -53 -18 -23 -48 -63 -66 -89 -60 -88
-134 -110 -205 -62 -44 30 -51 31 -83 5 -31 -24 -45 -18 -33 16 6 14 10 38 10
54 0 27 3 29 48 36 68 10 173 43 203 65 15 10 37 23 50 28 34 14 109 13 109 0z
m-34276 -195 c18 -7 22 -39 6 -49 -6 -4 -27 4 -47 16 -37 23 -37 23 -13 30 35
10 36 10 54 3z m783 -40 c83 -19 91 -23 98 -44 7 -21 -24 -87 -51 -111 -11 -9
-35 -21 -54 -28 -19 -6 -101 -47 -181 -91 -252 -135 -327 -160 -379 -121 -32
23 -55 27 -65 11 -18 -29 -235 14 -341 68 -70 36 -119 84 -110 107 5 15 18 16
103 10 80 -6 117 -3 201 14 118 25 206 55 232 81 33 33 57 40 191 50 169 13
259 36 259 67 0 10 6 13 18 8 9 -3 45 -13 79 -21z m-956 -13 c42 -42 38 -63
-18 -93 -27 -14 -63 -29 -80 -33 -28 -6 -33 -4 -33 12 0 11 -5 24 -11 30 -17
17 -1 70 28 93 37 29 79 26 114 -9z m24329 -266 c13 -16 5 -55 -12 -55 -16 0
-48 31 -48 46 0 24 42 31 60 9z m-14809 -54 c20 -16 24 -28 24 -76 0 -65 -17
-85 -71 -85 -51 0 -61 22 -36 74 12 24 22 54 22 68 0 43 23 50 61 19z m16064
5 c18 -13 17 -14 -14 -30 -35 -18 -92 -18 -98 0 -12 36 73 59 112 30z m-15008
-38 c36 -40 55 -88 34 -88 -21 0 -71 59 -71 84 0 32 10 33 37 4z m14697 -59
c-11 -18 -63 -36 -195 -68 -68 -16 -161 -43 -207 -60 -45 -17 -131 -40 -190
-52 -59 -11 -150 -31 -202 -44 -135 -33 -204 -42 -475 -60 -132 -9 -258 -20
-280 -25 -158 -33 -209 -40 -360 -54 -217 -21 -294 -30 -488 -62 l-158 -27
-83 23 -82 22 -82 -33 c-75 -29 -86 -31 -122 -20 -61 18 -53 41 23 67 34 12
87 31 117 42 30 11 100 25 155 32 55 6 136 20 180 30 79 19 218 35 553 65 95
9 184 20 197 25 61 23 492 78 973 125 105 10 184 23 225 37 84 29 216 46 375
47 95 1 131 -2 126 -10z m-25506 -369 c36 -22 35 -40 -4 -40 -24 0 -64 31 -64
50 0 16 33 11 68 -10z m12458 -15 c16 -41 -52 -115 -105 -115 -31 0 -71 29
-71 52 0 13 18 27 63 48 69 33 105 38 113 15z m520 1 c18 -14 18 -15 -11 -46
-41 -43 -164 -102 -225 -108 -45 -4 -50 -3 -50 15 0 23 71 93 121 119 70 36
133 43 165 20z m7037 3 c-20 -20 -171 -39 -364 -46 -183 -6 -241 -2 -225 14 3
3 81 14 174 23 197 20 432 26 415 9z m131 2 c3 -5 -1 -14 -9 -21 -12 -10 -20
-9 -40 4 -14 9 -25 19 -25 21 0 9 69 5 74 -4z m-1025 -67 c-9 -11 -15 -12 -25
-3 -11 9 -12 15 -3 25 9 11 15 12 25 3 11 -9 12 -15 3 -25z m-18952 -19 c3 -9
3 -19 -1 -22 -7 -7 -36 16 -36 28 0 15 30 10 37 -6z m18098 -215 c52 -20 -4
-52 -141 -80 -154 -32 -296 -24 -264 15 36 44 335 92 405 65z m-521 -41 c64
-51 9 -74 -239 -99 -84 -9 -107 -8 -148 6 -57 19 -106 13 -133 -17 -26 -29
-73 -46 -172 -64 -48 -8 -121 -24 -162 -35 -118 -31 -335 -46 -477 -33 -127
13 -257 46 -251 66 6 21 129 75 218 96 93 23 266 40 705 71 160 11 310 21 335
23 25 2 102 4 171 5 114 2 129 0 153 -19z m-18994 -299 c0 -9 -3 -20 -7 -23
-12 -13 -33 16 -33 46 0 29 0 30 20 12 11 -10 20 -26 20 -35z m34478 -114 c-2
-12 -10 -21 -18 -21 -16 0 -25 28 -16 52 9 23 38 -4 34 -31z m-34519 -33 c26
-64 42 -350 22 -382 -14 -21 -35 28 -60 139 -29 124 -30 127 -48 145 -23 24
-9 64 28 77 23 8 29 15 26 29 -8 30 19 22 32 -8z m-157 -1590 c16 -18 48 -77
48 -88 0 -12 -70 -4 -84 11 -16 15 -22 75 -9 87 11 12 29 8 45 -10z m36688
-70 c0 -13 -54 -99 -83 -133 -79 -91 -217 -170 -297 -170 -25 0 -60 4 -79 10
-28 8 -45 5 -98 -16 -36 -14 -67 -23 -71 -20 -16 17 140 161 164 152 7 -3 22
4 35 15 12 10 39 24 59 29 21 6 55 24 76 41 58 46 89 60 183 80 98 20 111 22
111 12z m-36556 -104 c39 -46 58 -87 54 -117 -3 -23 -8 -27 -42 -30 -75 -6
-136 41 -136 104 0 73 77 99 124 43z m100 -221 c14 -19 14 -24 2 -36 -17 -18
-64 -8 -73 13 -7 20 14 45 38 45 10 0 25 -10 33 -22z m36014 -220 c-4 -28 -48
-50 -91 -46 l-32 3 55 32 c66 39 72 40 68 11z m-2578 -103 c10 -12 8 -19 -8
-40 -12 -15 -18 -33 -15 -46 10 -36 -20 -17 -31 19 -16 57 22 105 54 67z
m-33178 -957 c33 -7 56 -19 74 -41 31 -37 30 -38 -83 -57 -68 -11 -76 -10
-117 10 -47 22 -101 83 -91 101 8 12 141 4 217 -13z m242 -1362 c14 -9 26 -20
26 -25 0 -5 -38 -14 -84 -21 -71 -10 -96 -9 -162 4 -86 18 -93 21 -77 37 33
33 250 36 297 5z m286 5 l65 -6 -29 -20 c-31 -20 -134 -33 -181 -21 -27 7 -35
40 -12 49 16 7 76 6 157 -2z m31108 -327 c2 -17 -7 -27 -40 -45 -23 -13 -53
-39 -65 -58 -13 -19 -41 -42 -62 -52 -21 -9 -45 -26 -52 -36 -25 -34 -66 -54
-134 -64 -84 -12 -123 -31 -130 -67 -10 -46 -31 -76 -67 -96 -67 -37 -125 8
-97 75 18 46 125 157 173 181 23 11 65 38 94 61 46 35 61 41 122 46 56 6 73
11 96 34 31 31 74 46 124 44 27 -2 36 -7 38 -23z m-29930 -107 c2 -12 -3 -17
-17 -17 -12 0 -21 6 -21 13 0 31 32 34 38 4z m-1280 -368 c4 -20 -38 -39 -89
-39 -46 0 -79 14 -79 35 0 20 17 24 95 22 54 -2 70 -5 73 -18z m178 -15 c18
-14 15 -15 -34 -9 -29 3 -62 10 -75 15 -17 7 -10 9 34 9 36 1 62 -4 75 -15z
m-723 -55 c20 -5 37 -14 37 -19 0 -13 -91 -13 -124 0 -66 25 8 41 87 19z m402
-51 c32 -14 32 -28 1 -28 -33 0 -76 17 -76 30 0 14 43 13 75 -2z m1048 -390
c9 -5 17 -16 17 -24 0 -12 -13 -14 -67 -12 -61 3 -68 5 -71 25 -2 14 3 23 15
26 22 6 82 -3 106 -15z m1678 -547 c-20 -37 -146 -65 -146 -31 0 9 23 20 65
31 90 23 93 23 81 0z m723 -20 l25 -39 80 -3 c86 -4 101 -11 85 -37 -15 -23
-64 -26 -119 -8 -25 9 -74 16 -108 16 -73 0 -102 16 -112 61 -9 40 4 49 72 49
50 0 54 -2 77 -39z m-158 -106 c33 -22 18 -48 -38 -64 -23 -7 -89 -37 -146
-66 -122 -63 -195 -82 -485 -125 -238 -34 -332 -38 -341 -14 -8 22 -1 31 42
53 101 50 263 88 439 101 159 12 259 35 291 67 14 14 21 30 18 39 -12 32 5 37
101 31 62 -4 103 -11 119 -22z m218 -74 c73 -16 5 -56 -84 -49 -34 2 -46 7
-48 22 -2 10 2 22 10 27 15 10 78 10 122 0z m996 -296 c0 -19 -31 -35 -69 -35
-44 0 -38 16 12 33 54 20 57 20 57 2z m-357 -77 c-3 -18 -7 -35 -9 -37 -4 -4
-81 15 -121 30 -27 10 -27 11 -9 25 12 9 44 14 83 14 l63 0 -7 -32z m-778
-104 c14 -6 14 -8 -1 -25 -18 -20 -59 -25 -83 -10 -15 10 -5 18 37 31 15 5 28
9 29 9 1 1 9 -2 18 -5z m-154 -34 c10 -6 19 -15 19 -20 0 -15 -38 -22 -60 -10
-17 9 -19 14 -9 26 14 17 24 18 50 4z m-188 -44 c9 -22 -16 -58 -63 -91 -25
-17 -53 -48 -63 -68 -22 -44 -46 -47 -96 -12 -27 18 -56 26 -116 32 l-80 8 -3
33 c-4 44 18 68 76 81 130 31 336 41 345 17z m972 -16 c-41 -19 -334 -74 -364
-68 -28 6 82 46 180 67 52 11 123 20 159 19 l65 0 -40 -18z m-1446 -114 c11
-12 10 -16 -8 -26 -32 -17 -115 -9 -119 11 -7 36 94 47 127 15z m-264 -26 c0
-10 -12 -16 -34 -18 -39 -4 -64 13 -41 29 23 14 75 7 75 -11z m1105 4 c0 -18
-50 -41 -110 -50 -52 -8 -52 9 0 44 40 26 110 31 110 6z m2600 -18 c0 -25 -49
-55 -124 -77 -39 -11 -84 -30 -100 -41 -29 -21 -146 -39 -146 -22 0 13 80 64
100 64 8 0 58 20 110 45 96 46 160 58 160 31z m-3200 -31 c-13 -16 -40 -20
-40 -7 0 14 12 22 33 22 16 0 17 -3 7 -15z m8637 -8 c16 -16 14 -17 -34 -17
-54 0 -103 16 -103 33 0 16 119 3 137 -16z m-8257 -17 c-33 -22 -209 -72 -272
-77 -57 -5 -68 -3 -68 9 0 24 47 38 196 58 171 22 162 22 144 10z m8844 -89
c111 -22 262 -47 336 -56 314 -38 373 -46 435 -66 67 -21 142 -79 129 -101
-10 -16 -167 -5 -196 14 -44 29 -99 37 -308 47 -219 11 -273 21 -293 52 -6 10
-22 19 -34 19 -56 0 -313 98 -313 119 0 17 31 14 244 -28z m-291 -166 c106
-36 109 -49 11 -42 -90 7 -215 44 -222 66 -7 21 124 6 211 -24z m-518 -36 c33
-6 75 -20 95 -30 l35 -20 -85 6 c-94 6 -146 17 -175 40 -19 13 -17 14 26 15
25 0 72 -5 104 -11z m-6217 -41 c-3 -7 -13 -13 -23 -13 -10 0 -20 6 -22 13 -3
7 5 12 22 12 17 0 25 -5 23 -12z m702 -92 c0 -17 -21 -26 -59 -26 -34 0 -44 9
-30 27 16 18 89 18 89 -1z m10311 4 c26 -14 24 -32 -3 -28 -13 2 -24 11 -26
21 -4 20 2 21 29 7z m346 -11 c46 -5 90 -12 98 -15 22 -9 18 -24 -6 -24 -12 0
-28 -8 -35 -17 -34 -48 -316 7 -339 65 -4 12 11 13 97 7 57 -3 140 -11 185
-16z m-10883 -84 c-9 -23 -112 -86 -188 -115 -39 -14 -99 -47 -133 -72 -70
-51 -126 -68 -226 -68 -70 0 -91 9 -81 34 20 53 291 183 448 216 48 10 67 10
99 -1 36 -12 41 -11 51 4 13 21 38 23 30 2z m21060 -36 c28 -13 41 -38 27 -52
-15 -15 -121 2 -128 20 -13 34 51 54 101 32z m-14907 -104 c3 -9 3 -18 0 -21
-10 -10 -47 7 -47 22 0 19 39 18 47 -1z m-7942 -65 c4 -6 -5 -10 -20 -10 -15
0 -24 4 -20 10 3 6 12 10 20 10 8 0 17 -4 20 -10z m-176 -29 c32 -24 24 -49
-27 -85 -35 -25 -46 -28 -69 -20 -67 23 -24 123 52 123 11 0 31 -8 44 -18z
m579 -33 c-3 -7 -31 -24 -64 -38 -33 -14 -71 -33 -84 -42 -50 -33 -130 -35
-130 -3 0 23 43 45 137 70 103 27 147 31 141 13z m-1558 -108 c0 -11 -48 -25
-56 -17 -4 3 -3 10 1 16 8 14 55 14 55 1z m18570 -58 c94 -35 98 -36 278 -40
106 -2 182 -8 182 -13 0 -6 -17 -18 -37 -27 -32 -14 -67 -17 -233 -14 -253 3
-349 14 -417 48 -29 14 -53 29 -53 34 0 5 12 11 28 14 15 4 41 15 57 26 37 24
64 20 195 -28z m-555 -20 l40 -21 -30 -2 c-80 -6 -152 12 -171 42 -12 20 117
4 161 -19z m4400 -62 c-35 -23 -49 -25 -64 -7 -16 20 -3 27 48 27 l46 0 -30
-20z m-3982 -87 c-7 -2 -21 -2 -30 0 -10 3 -4 5 12 5 17 0 24 -2 18 -5z m2212
-383 c330 -28 313 -24 401 -94 29 -23 66 -49 83 -58 48 -26 40 -41 -16 -31
-70 12 -221 6 -309 -13 -81 -16 -117 -13 -175 17 -24 12 -48 16 -70 13 -22 -4
-53 2 -89 16 -32 13 -96 26 -152 31 -132 13 -188 36 -188 80 0 19 15 23 112
34 32 4 62 13 69 21 9 12 24 14 53 10 23 -3 149 -15 281 -26z m-4056 -523 c33
-16 35 -29 9 -46 -62 -39 -163 -30 -174 16 -4 16 -2 28 7 34 21 13 130 11 158
-4z"/>
<path d="M2280 15080 c-12 -8 -12 -10 3 -16 9 -3 25 -3 34 0 15 6 15 8 3 16
-8 6 -17 10 -20 10 -3 0 -12 -4 -20 -10z"/>
<path d="M2320 14975 c0 -8 -16 -21 -35 -29 -64 -27 -35 -66 49 -66 35 0 48 4
56 20 15 28 3 60 -21 60 -11 0 -22 7 -25 15 -8 19 -24 19 -24 0z"/>
<path d="M39100 14831 c0 -22 25 -39 38 -27 8 8 -10 38 -26 44 -7 2 -12 -6
-12 -17z"/>
<path d="M10570 14834 c0 -16 23 -44 35 -44 18 0 20 21 3 38 -12 12 -38 17
-38 6z"/>
<path d="M10657 14803 c-10 -9 -9 -43 1 -43 14 0 43 36 35 43 -8 9 -28 9 -36
0z"/>
<path d="M10755 14780 c-7 -12 12 -40 27 -40 13 0 6 43 -9 47 -6 2 -14 -1 -18
-7z"/>
<path d="M2920 14729 c-13 -5 -32 -16 -40 -24 -18 -16 -108 -31 -250 -40 -143
-9 -280 -26 -309 -37 -25 -9 -25 -10 -6 -21 29 -17 391 -22 532 -7 127 13 195
30 232 59 l24 18 -44 26 c-52 30 -105 40 -139 26z"/>
<path d="M12542 14678 c-18 -18 -15 -36 8 -48 28 -15 62 4 58 33 -3 25 -46 35
-66 15z"/>
<path d="M3392 14561 c-30 -10 -61 -26 -70 -36 -16 -16 -14 -17 27 -10 90 15
136 30 136 45 0 22 -33 22 -93 1z"/>
<path d="M13375 13981 c-10 -31 10 -63 76 -126 50 -47 64 -56 67 -42 2 9 -11
41 -28 70 -69 113 -101 140 -115 98z"/>
<path d="M2834 13409 c-9 -15 14 -35 49 -43 32 -8 47 15 27 39 -14 17 -66 20
-76 4z"/>
<path d="M2730 13230 c-13 -9 -12 -12 4 -25 27 -20 95 -20 103 0 3 9 3 18 0
22 -12 11 -92 14 -107 3z"/>
<path d="M2340 13087 c0 -44 15 -57 65 -57 52 0 80 19 71 48 -7 22 -18 26 -93
36 l-43 6 0 -33z"/>
<path d="M26700 12623 c-52 -9 -130 -34 -130 -42 0 -16 30 -21 120 -21 96 0
140 11 140 34 0 30 -53 42 -130 29z"/>
<path d="M26000 12536 c0 -32 64 -55 94 -33 19 14 19 15 -12 31 -38 20 -82 21
-82 2z"/>
<path d="M24897 12500 c-49 -9 -67 -26 -38 -35 22 -7 61 -1 121 17 30 10 32
12 15 19 -24 9 -48 9 -98 -1z"/>
<path d="M24543 12481 c-50 -9 -63 -18 -43 -31 33 -21 185 -1 163 21 -14 14
-71 19 -120 10z"/>
<path d="M24710 12480 c0 -5 13 -10 29 -10 17 0 33 5 36 10 4 6 -8 10 -29 10
-20 0 -36 -4 -36 -10z"/>
<path d="M24080 12463 c-223 -9 -461 -26 -500 -34 -25 -6 -92 -17 -150 -25
-155 -22 -216 -42 -195 -63 7 -7 64 -4 175 9 91 10 282 28 425 39 522 43 615
54 615 76 0 5 -247 4 -370 -2z"/>
<path d="M22837 12330 c-227 -29 -331 -49 -391 -74 -59 -25 -48 -37 44 -51 25
-4 71 -20 102 -36 32 -16 62 -29 67 -29 6 0 17 14 26 30 15 28 19 30 75 30 46
0 60 3 60 15 0 8 10 17 23 19 95 20 128 30 137 41 7 8 35 21 63 29 29 9 59 20
67 26 13 9 13 11 0 20 -19 13 -18 13 -273 -20z"/>
<path d="M21152 12028 c4 -27 33 -36 42 -13 8 22 -1 35 -25 35 -15 0 -20 -6
-17 -22z"/>
<path d="M12944 12009 c-25 -28 -8 -54 37 -54 40 0 51 26 23 56 -22 24 -36 24
-60 -2z"/>
<path d="M25476 12001 c-15 -17 -16 -19 -1 -25 22 -8 35 1 35 25 0 24 -12 24
-34 0z"/>
<path d="M25195 11991 c-41 -12 -61 -23 -63 -36 -4 -16 2 -17 52 -13 35 3 67
12 83 24 55 41 23 52 -72 25z"/>
<path d="M24857 11938 c-73 -26 30 -50 112 -26 25 8 46 19 49 26 5 15 -119 15
-161 0z"/>
<path d="M20232 11915 c-40 -7 -80 -16 -88 -19 -23 -9 -16 -36 14 -47 36 -14
159 -6 197 14 17 8 48 19 70 24 25 5 40 14 40 23 0 20 -134 23 -233 5z"/>
<path d="M19834 11826 c-10 -8 -16 -18 -12 -22 10 -9 58 12 58 26 0 14 -23 12
-46 -4z"/>
<path d="M240 11822 c0 -42 161 -210 232 -242 81 -37 97 -18 59 66 -23 51 -58
79 -124 98 -29 8 -71 31 -94 51 -38 33 -73 46 -73 27z"/>
<path d="M19660 11784 c-8 -1 -48 -8 -87 -14 -40 -7 -73 -15 -73 -20 0 -12
157 -32 193 -24 59 13 87 44 51 58 -16 6 -57 6 -84 0z"/>
<path d="M19351 11751 c-21 -14 -5 -41 24 -41 29 0 45 27 24 41 -8 5 -18 9
-24 9 -5 0 -16 -4 -24 -9z"/>
<path d="M13140 11486 c0 -55 15 -96 34 -96 18 0 36 30 36 59 0 20 -45 81 -61
81 -5 0 -9 -20 -9 -44z"/>
<path d="M772 11448 c-40 -20 -22 -42 43 -55 33 -6 63 -9 67 -5 4 4 -1 22 -12
40 -21 35 -53 41 -98 20z"/>
<path d="M497 11123 c-12 -11 -8 -40 8 -53 18 -15 45 2 45 30 0 23 -37 39 -53
23z"/>
<path d="M673 10802 c10 -10 17 -36 18 -58 l1 -39 14 34 c21 47 11 81 -23 81
-25 0 -25 -1 -10 -18z"/>
<path d="M714 9139 c-10 -17 23 -46 38 -31 8 8 8 15 -2 27 -15 18 -26 19 -36
4z"/>
<path d="M37127 7273 c-23 -23 15 -83 53 -83 26 0 27 40 1 47 -13 3 -17 11
-14 24 4 14 0 19 -14 19 -11 0 -23 -3 -26 -7z"/>
<path d="M1605 6960 c-18 -12 -39 -18 -52 -15 -32 8 -93 -20 -93 -42 0 -19
105 -123 124 -123 7 0 25 14 41 30 16 17 39 30 52 30 43 0 74 88 43 125 -18
21 -79 19 -115 -5z"/>
<path d="M36473 5888 c-25 -12 -30 -37 -11 -56 28 -28 78 2 78 46 0 25 -28 29
-67 10z"/>
<path d="M36320 5745 c0 -21 27 -30 45 -15 23 19 18 30 -15 30 -20 0 -30 -5
-30 -15z"/>
<path d="M36202 5668 c-89 -47 -172 -111 -172 -133 0 -18 51 -28 100 -20 30 5
44 14 55 34 7 15 35 53 60 85 26 31 45 61 43 67 -2 6 -39 -8 -86 -33z"/>
<path d="M214 5516 c-48 -21 -51 -36 -7 -36 33 0 103 30 103 45 0 10 -66 4
-96 -9z"/>
<path d="M35920 5474 c-30 -32 -49 -59 -43 -61 20 -7 93 17 114 38 24 24 22
72 -2 77 -8 1 -40 -23 -69 -54z"/>
<path d="M22 5489 c-30 -11 -25 -39 10 -58 53 -30 150 20 104 55 -22 16 -79
18 -114 3z"/>
<path d="M35762 5358 c-17 -17 -15 -48 4 -55 19 -7 35 14 32 41 -4 24 -20 30
-36 14z"/>
<path d="M652 5252 c-33 -23 53 -45 128 -33 l45 7 -33 12 c-47 16 -125 24
-140 14z"/>
<path d="M35345 5009 c-33 -16 -78 -47 -100 -68 -22 -21 -53 -42 -70 -45 -45
-10 -177 -103 -292 -205 -97 -86 -203 -202 -203 -221 0 -23 -34 -40 -81 -40
-40 0 -54 -5 -73 -25 -12 -13 -42 -33 -67 -44 -24 -10 -68 -40 -98 -65 -61
-53 -91 -70 -169 -97 -31 -11 -74 -30 -97 -43 -41 -25 -85 -34 -259 -56 -105
-13 -156 -32 -163 -60 -3 -11 -12 -20 -20 -20 -9 0 -63 -16 -122 -36 -58 -19
-154 -47 -213 -60 -102 -24 -167 -54 -176 -81 -3 -10 16 -13 74 -13 43 0 104
-5 135 -12 77 -16 160 0 308 58 119 47 229 74 309 74 65 1 108 19 172 71 30
24 120 89 200 143 203 139 335 240 407 312 37 38 77 67 100 74 49 16 83 40
161 112 34 32 69 58 77 58 8 0 52 36 99 79 46 44 103 89 126 101 43 22 140
113 140 131 0 18 -46 8 -105 -22z"/>
<path d="M3220 4400 c0 -5 14 -10 31 -10 17 0 28 4 24 10 -3 6 -17 10 -31 10
-13 0 -24 -4 -24 -10z"/>
<path d="M3345 4280 c-11 -17 5 -30 36 -30 36 0 38 17 3 30 -31 12 -31 12 -39
0z"/>
<path d="M2911 4071 c-49 -13 -36 -31 23 -31 61 0 110 15 101 30 -7 11 -86 12
-124 1z"/>
<path d="M3275 4067 c-24 -18 -11 -37 24 -37 31 0 57 23 46 40 -9 14 -48 13
-70 -3z"/>
<path d="M3315 3895 c-195 -33 -205 -35 -205 -47 0 -15 337 -6 368 10 25 15
29 47 6 56 -19 7 -12 8 -169 -19z"/>
<path d="M2802 3843 c-11 -20 1 -63 18 -63 18 0 51 41 48 58 -5 24 -54 28 -66
5z"/>
<path d="M33690 3740 c-108 -39 -213 -131 -183 -161 8 -8 26 -4 70 17 32 16
89 40 127 54 72 26 114 65 103 94 -8 21 -49 20 -117 -4z"/>
<path d="M33415 3548 c-27 -15 -36 -31 -25 -42 19 -19 98 22 85 45 -8 12 -36
11 -60 -3z"/>
<path d="M32889 3515 c-3 -2 -50 -16 -105 -31 -54 -14 -104 -33 -111 -41 -7
-9 -19 -13 -28 -9 -9 3 -18 0 -21 -9 -4 -10 -21 -15 -53 -15 -43 -1 -45 -2
-26 -16 22 -17 47 -16 173 7 62 11 75 17 83 36 9 26 34 29 74 11 52 -23 106
35 56 62 -21 11 -35 13 -42 5z"/>
<path d="M33214 3436 c-23 -7 -74 -31 -114 -52 l-72 -39 48 -3 c68 -5 132 16
176 56 55 49 41 63 -38 38z"/>
<path d="M32444 3426 c-18 -14 -18 -16 -3 -31 11 -11 24 -15 38 -10 25 7 28
40 5 49 -20 8 -17 8 -40 -8z"/>
<path d="M2385 3319 c-44 -10 -118 -21 -165 -24 -112 -8 -233 -30 -306 -55
-33 -12 -124 -32 -204 -46 -169 -29 -209 -39 -390 -98 -136 -44 -168 -64 -154
-100 9 -23 32 -20 117 14 86 34 203 63 462 114 319 62 612 109 792 126 62 6
125 15 140 21 l28 11 -23 19 c-53 43 -161 49 -297 18z"/>
<path d="M3100 3332 c0 -24 131 -45 145 -23 9 15 -13 23 -81 29 -41 3 -64 1
-64 -6z"/>
<path d="M16140 3296 c-54 -8 -75 -15 -75 -26 0 -17 63 -38 120 -39 55 -2 127
-23 206 -60 36 -17 91 -37 123 -43 74 -16 91 -6 91 53 -1 81 -1 81 -117 73
-102 -7 -104 -6 -165 25 -67 34 -71 34 -183 17z"/>
<path d="M32278 3294 c-34 -18 -36 -49 -6 -65 39 -21 168 6 168 35 0 39 -109
59 -162 30z"/>
<path d="M825 3220 c-11 -4 -31 -20 -44 -34 -23 -24 -23 -28 -9 -42 14 -14 19
-12 52 23 48 51 49 73 1 53z"/>
<path d="M660 3160 c0 -5 14 -10 30 -10 17 0 30 5 30 10 0 6 -13 10 -30 10
-16 0 -30 -4 -30 -10z"/>
<path d="M16143 3036 c-18 -8 -33 -19 -33 -24 0 -11 81 -34 217 -62 118 -23
182 -25 208 -6 17 12 18 16 5 32 -27 32 -99 56 -179 59 -42 1 -101 5 -131 9
-39 4 -65 2 -87 -8z"/>
<path d="M17311 2906 c-10 -12 -8 -19 8 -35 17 -17 34 -21 84 -21 39 0 71 5
83 14 18 14 18 15 -11 26 -30 11 -117 30 -140 30 -7 0 -18 -6 -24 -14z"/>
<path d="M16808 2870 c-19 -15 -21 -22 -12 -46 11 -32 12 -32 126 -18 44 5 73
2 126 -15 101 -30 125 -28 115 10 -10 37 -60 53 -157 51 -69 -1 -99 3 -133 18
-41 18 -43 18 -65 0z"/>
<path d="M2682 2770 c-355 -90 -428 -100 -812 -110 -376 -9 -403 -15 -355 -80
14 -19 25 -42 25 -51 0 -42 24 -123 41 -140 21 -21 35 -18 89 17 50 32 115 49
375 94 260 45 273 48 353 87 51 25 67 28 160 28 89 0 105 -3 117 -18 12 -17
19 -14 88 51 50 46 105 84 164 114 95 49 119 79 61 77 -18 0 -156 -31 -306
-69z"/>
<path d="M15870 2805 c0 -25 38 -37 91 -30 27 4 49 10 49 15 0 9 -79 30 -114
30 -16 0 -26 -6 -26 -15z"/>
<path d="M16625 2803 c-74 -7 -209 -34 -234 -48 -32 -17 -21 -21 69 -29 36 -3
133 -19 215 -36 151 -30 245 -38 245 -21 0 16 -103 102 -145 122 -38 18 -63
20 -150 12z"/>
<path d="M16157 2778 c-23 -12 -21 -35 4 -48 25 -14 69 -5 69 14 0 27 -47 49
-73 34z"/>
<path d="M3320 2731 c-97 -31 -106 -46 -45 -76 31 -15 66 -20 155 -23 147 -4
186 16 89 47 -25 8 -40 21 -52 46 -20 42 -31 43 -147 6z"/>
<path d="M3744 2719 c-44 -12 -71 -44 -54 -64 15 -18 29 -19 97 -3 38 9 53 17
53 29 0 33 -47 52 -96 38z"/>
<path d="M9054 2668 c-9 -14 23 -38 53 -38 28 0 31 25 4 40 -26 13 -48 13 -57
-2z"/>
<path d="M18331 2600 c-35 -16 -65 -20 -156 -20 -113 0 -145 -5 -145 -20 0 -9
15 -12 236 -54 73 -14 167 -37 210 -51 50 -17 120 -30 189 -35 116 -10 259
-41 413 -91 l93 -29 46 20 c78 34 146 25 186 -27 17 -21 25 -23 121 -23 107 0
120 -4 223 -65 30 -18 32 -19 51 -2 25 23 58 22 215 -7 204 -38 466 -44 460
-11 -1 6 -48 22 -105 36 -57 15 -131 41 -164 58 -34 17 -98 40 -141 51 -44 11
-106 31 -137 45 -32 14 -108 43 -169 64 -62 21 -124 44 -138 51 -22 10 -36 9
-80 -5 -64 -22 -209 -16 -258 10 -29 15 -39 15 -121 -1 -87 -16 -94 -15 -203
5 -61 11 -157 23 -212 27 -80 5 -117 13 -187 40 -72 28 -157 53 -178 54 -3 0
-25 -9 -49 -20z"/>
<path d="M14912 2547 c-53 -56 -6 -158 74 -161 l39 -1 3 74 c2 58 -1 77 -14
92 -24 27 -75 25 -102 -4z"/>
<path d="M14635 2550 c-9 -15 14 -40 36 -40 24 0 33 18 19 35 -14 17 -46 20
-55 5z"/>
<path d="M2760 2516 c-103 -29 -163 -71 -176 -121 -12 -50 6 -52 142 -10 162
50 233 96 209 135 -9 14 -120 11 -175 -4z"/>
<path d="M17163 2373 c-17 -10 -43 -27 -58 -38 -22 -15 -53 -21 -154 -26 -127
-8 -205 -25 -270 -60 -24 -13 -46 -17 -70 -13 -40 6 -79 -15 -67 -35 5 -8 22
-10 51 -6 27 5 45 3 49 -4 4 -6 26 -21 49 -34 38 -20 56 -22 187 -22 124 0
150 3 180 20 37 20 143 25 243 10 39 -6 47 -4 47 9 0 20 -34 42 -80 52 l-35 7
30 10 c65 21 72 50 23 102 -40 43 -82 52 -125 28z m-384 -168 c40 -20 48 -45
15 -45 -28 0 -84 26 -84 39 0 24 29 27 69 6z"/>
<path d="M16231 2317 c-9 -12 -8 -16 5 -21 22 -9 56 3 51 17 -5 18 -42 20 -56
4z"/>
<path d="M2031 2287 c-6 -8 -14 -27 -17 -43 -8 -42 18 -61 109 -78 43 -8 87
-22 99 -31 25 -17 109 -20 138 -5 25 14 45 74 31 97 -10 17 -11 16 -17 -4 -11
-38 -61 -30 -170 27 -98 51 -151 62 -173 37z"/>
<path d="M2710 2265 c-13 -16 -11 -187 2 -201 11 -11 48 26 48 48 0 10 16 36
36 58 25 27 32 41 23 44 -68 20 -94 34 -91 49 4 21 -2 22 -18 2z"/>
<path d="M15670 2265 c0 -8 132 -45 164 -45 17 0 38 5 46 10 13 9 12 12 -4 25
-14 11 -46 15 -113 15 -51 0 -93 -2 -93 -5z"/>
<path d="M16350 2260 c0 -13 -47 -36 -91 -44 -36 -6 -68 -31 -56 -42 13 -14
89 -24 180 -24 79 0 99 3 104 16 8 21 -35 64 -64 64 -13 0 -32 9 -43 20 -22
22 -30 25 -30 10z"/>
<path d="M3013 2239 c-44 -13 -48 -24 -13 -39 37 -15 91 -6 114 19 16 17 16
19 -6 25 -30 8 -56 6 -95 -5z"/>
<path d="M17504 2218 c-17 -27 70 -51 105 -29 11 7 7 13 -17 25 -36 19 -78 21
-88 4z"/>
<path d="M15791 2166 l-53 -23 58 -16 c33 -9 86 -21 118 -26 112 -20 120 -12
51 44 -57 47 -101 52 -174 21z"/>
<path d="M5343 2045 c-41 -17 -47 -55 -9 -55 28 0 76 35 76 56 0 18 -25 17
-67 -1z"/>
<path d="M2479 1972 c-7 -22 -24 -37 -55 -53 -47 -22 -46 -22 -231 -3 -69 7
-110 -1 -83 -16 9 -5 54 -18 100 -30 120 -31 227 -24 375 24 130 42 147 51
125 66 -25 17 -82 30 -153 37 l-67 6 -11 -31z"/>
<path d="M20990 1928 c1 -19 29 -53 37 -45 8 9 -14 57 -27 57 -5 0 -10 -6 -10
-12z"/>
<path d="M15410 1799 c-30 -4 -68 -13 -84 -19 -28 -10 -28 -12 -12 -28 13 -13
33 -17 94 -15 86 1 132 15 132 38 0 26 -52 35 -130 24z"/>
<path d="M20422 1743 c-33 -4 -52 -27 -36 -43 5 -5 56 -11 114 -14 92 -5 107
-8 123 -27 14 -18 24 -20 54 -16 62 10 86 57 29 57 -12 0 -55 11 -94 25 -67
24 -110 28 -190 18z"/>
<path d="M26635 1691 c-48 -9 -46 -9 119 -42 99 -19 110 -19 124 -5 15 15 15
17 -1 33 -13 13 -37 18 -109 19 -51 1 -111 -1 -133 -5z"/>
<path d="M27146 1681 c-8 -13 33 -41 51 -34 8 3 13 13 11 22 -4 18 -53 28 -62
12z"/>
<path d="M26560 1671 c0 -5 9 -19 20 -32 15 -19 19 -21 20 -7 0 27 -11 48 -26
48 -8 0 -14 -4 -14 -9z"/>
<path d="M4613 1599 c-64 -20 -89 -44 -73 -69 7 -11 20 -9 74 14 68 29 92 48
81 66 -8 13 -8 13 -82 -11z"/>
<path d="M25211 1515 c-30 -13 -33 -18 -20 -29 8 -7 36 -21 63 -29 43 -15 51
-15 77 -1 35 18 37 37 5 52 -44 20 -90 22 -125 7z"/>
<path d="M19462 1460 c-70 -12 -125 -29 -170 -51 l-67 -34 58 -3 c89 -5 196
13 221 37 18 17 35 21 89 21 82 0 169 18 164 33 -6 20 -180 18 -295 -3z"/>
<path d="M17857 1292 c-40 -44 -4 -104 69 -118 84 -16 111 27 52 83 -59 55
-94 65 -121 35z"/>
<path d="M17343 1280 c-97 -23 -79 -101 23 -100 64 1 246 24 261 33 15 9 7 33
-14 41 -9 4 -57 11 -107 16 -50 6 -100 12 -111 14 -11 2 -35 1 -52 -4z"/>
<path d="M14112 1228 c-30 -30 -5 -37 29 -8 23 19 23 19 4 20 -12 0 -26 -5
-33 -12z"/>
<path d="M2307 1190 c-26 -16 -47 -34 -47 -40 0 -5 0 -13 0 -17 1 -16 57 -22
123 -13 77 11 140 36 134 54 -4 14 -92 44 -133 45 -17 1 -50 -11 -77 -29z"/>
<path d="M15510 1191 c-60 -16 -63 -18 -35 -24 35 -8 200 -27 233 -27 36 0 26
15 -31 43 -60 31 -77 32 -167 8z"/>
<path d="M16220 1140 c-8 -5 -5 -12 11 -24 25 -17 69 -22 69 -7 0 22 -58 44
-80 31z"/>
<path d="M16391 1126 c-10 -12 -8 -17 8 -25 25 -14 47 -14 73 0 21 11 21 12 3
25 -25 18 -69 18 -84 0z"/>
<path d="M16685 1110 c-18 -7 -19 -8 -2 -15 9 -4 29 -4 45 0 25 7 25 8 7 15
-25 10 -25 10 -50 0z"/>
<path d="M2605 1013 c-11 -2 -56 -11 -100 -19 -102 -19 -215 -52 -215 -63 0
-14 28 -21 83 -21 64 1 123 13 207 44 36 13 87 28 114 33 76 12 72 33 -6 32
-34 -1 -72 -3 -83 -6z"/>
<path d="M20673 988 c-6 -7 -13 -21 -17 -32 -5 -16 -14 -18 -52 -13 -38 4 -45
2 -42 -12 2 -9 22 -22 44 -30 35 -12 49 -12 88 -1 47 13 96 44 96 60 0 14 -55
40 -83 40 -14 0 -29 -6 -34 -12z"/>
<path d="M19655 738 c-220 -74 -236 -80 -222 -94 18 -18 229 33 277 66 14 10
45 22 70 27 30 6 46 14 48 26 5 26 -36 20 -173 -25z"/>
<path d="M16505 750 c-11 -13 -14 -20 -6 -20 18 0 51 19 51 30 0 17 -26 11
-45 -10z"/>
<path d="M20338 719 c-10 -5 -18 -14 -18 -20 0 -14 45 -29 69 -22 29 7 26 31
-5 43 -30 12 -25 12 -46 -1z"/>
<path d="M20028 610 c-94 -41 -244 -87 -371 -116 -110 -24 -189 -53 -201 -73
-12 -18 44 -33 98 -26 59 7 371 104 473 146 39 17 77 37 84 45 6 8 23 14 37
14 23 0 24 2 12 14 -28 28 -63 27 -132 -4z"/>
<path d="M18800 422 c0 -21 18 -42 37 -42 19 0 16 24 -5 43 -24 22 -32 21 -32
-1z"/>
<path d="M16880 290 c-20 -12 7 -50 47 -67 51 -21 66 -3 29 36 -31 32 -57 43
-76 31z"/>
<path d="M14340 140 c-791 -43 -1149 -54 -1353 -40 -95 7 -246 13 -337 14
-159 1 -211 -6 -178 -25 23 -13 233 -37 422 -49 419 -26 2216 -43 2292 -22 72
21 81 60 19 76 -15 4 -27 16 -31 31 -3 14 -14 30 -24 35 -29 16 -253 10 -810
-20z"/>
</g>
</svg>
